<svg id="Layer_1" data-name="Layer 1" xmlns="http://www.w3.org/2000/svg" viewBox="0 0 64 64"><defs><style>.cls-1{font-size:17.38px;fill:#fff;font-family:Quicksand-Medium, Quicksand;}.cls-2{fill:none;stroke:#fff;stroke-linecap:round;stroke-linejoin:round;stroke-width:1.64px;}</style></defs><title>360degree</title><text class="cls-1" transform="translate(17.05 38.1)">360</text><path class="cls-2" d="M21.17,50.06A45.54,45.54,0,0,0,31.6,51.23c19.61,0,31.07-9.88,31.07-19.27,0-11.85-16.23-19.26-31.07-19.26C17.45,12.7,1.33,19.93,1.33,32c0,0-.45,10.47,13.87,16.33"/><path class="cls-2" d="M51.17,28.72c.06,1,.1,1.9.1,2.84,0,16-7.94,31.07-19.27,31.07-9.39,0-19.27-11.46-19.27-31.07A45.54,45.54,0,0,1,13.9,21.13s.92-4.06,2-5.56"/><path class="cls-2" d="M48.29,15.61C45.1,7.55,39.49,1.37,32,1.37c0,0-7.7-.33-13.58,8.59"/><circle class="cls-2" cx="47.85" cy="22.88" r="2.34"/></svg>