<svg aria-hidden="true" style="position: absolute; width: 0; height: 0; overflow: hidden;" version="1.1" xmlns="http://www.w3.org/2000/svg" xmlns:xlink="http://www.w3.org/1999/xlink">
<defs>
<symbol id="icon-atm" viewBox="0 0 37 32">
<title>atm</title>
<path fill="#262637" style="fill: var(--color1, #262637)" d="M30.667 6.733h-24c-0.692 0-1.25 0.558-1.25 1.25v0c0 0.692 0.558 1.25 1.25 1.25h1.25v-1.25h21.333v1.25h1.417c0.692 0 1.25-0.558 1.25-1.25v0c0-0.692-0.558-1.25-1.25-1.25z"></path>
<path fill="#262637" style="fill: var(--color1, #262637)" d="M33.333-0.017h-29.333c-2.208 0-4 1.792-4 4v8c0 2.208 1.792 4 4 4h3.917v-2.667h-3.917c-0.733 0-1.333-0.6-1.333-1.333v-8c0-0.733 0.6-1.333 1.333-1.333h29.333c0.733 0 1.333 0.6 1.333 1.333v8c0 0.733-0.6 1.333-1.333 1.333h-4.083v2.667h4.083c2.208 0 4-1.792 4-4v-8c0-2.208-1.792-4-4-4z"></path>
<path fill="#00deb6" style="fill: var(--color2, #00deb6)" d="M26.5 7.983h2.75v24h-2.75v-24z"></path>
<path fill="#00deb6" style="fill: var(--color2, #00deb6)" d="M7.917 7.983v24h14.75v-24h-14.75zM15.833 28.358c0 0.767-0.625 1.392-1.392 1.392h-1.058c-0.767 0-1.392-0.625-1.392-1.392v-6.992c0-0.767 0.625-1.392 1.392-1.392h1.058c0.767 0 1.392 0.625 1.392 1.392v6.992zM15.833 16.975c0 0.767-0.625 1.392-1.392 1.392h-1.058c-0.767 0-1.392-0.625-1.392-1.392v-1.058c0-0.767 0.625-1.392 1.392-1.392h1.058c0.767 0 1.392 0.625 1.392 1.392v1.058z"></path>
</symbol>
<symbol id="icon-gas-station" viewBox="0 0 32 32">
<title>gas-station</title>
<path fill="#262637" style="fill: var(--color1, #262637)" d="M30.106 22.625c0 0.944-0.644 1.825-1.575 1.975-1.181 0.194-2.212-0.719-2.212-1.869v-2.844c0-2.619-2.119-4.738-4.738-4.738h-0.95v-11.363c0.006-2.087-1.694-3.788-3.781-3.788h-9.475c-2.088 0-3.788 1.7-3.788 3.788v26.044c0 0.262 0.212 0.475 0.475 0.475h16.1c0.262 0 0.475-0.212 0.475-0.475v-12.781h0.95c1.569 0 2.844 1.275 2.844 2.844v2.625c0 1.887 1.288 3.637 3.15 3.95 2.375 0.394 4.425-1.438 4.425-3.738v-10.419h-1.894v10.313zM18.744 28.413h-13.262v-15.156h13.256v15.156zM18.744 11.363h-13.262v-7.575c0-1.044 0.85-1.894 1.894-1.894h9.469c1.044 0 1.894 0.85 1.894 1.894v7.575z"></path>
<path fill="#00deb6" style="fill: var(--color2, #00deb6)" d="M20.637 29.831c0 0.262-0.212 0.475-0.475 0.475h-16.1c-0.263 0-0.475-0.212-0.475-0.475v-3.769h-3.587v5.938h24.1v-5.938h-3.462v3.769z"></path>
<path fill="#00deb6" style="fill: var(--color2, #00deb6)" d="M31.444 7.1l-5.538-5.544c-0.181-0.181-0.488-0.181-0.669 0l-0.675 0.669c-0.181 0.181-0.181 0.487 0 0.669l1.75 1.756v4.819c0 1.569 1.275 2.844 2.844 2.844h2.844v-3.869c0-0.506-0.2-0.987-0.556-1.344z"></path>
</symbol>
<symbol id="icon-hospital" viewBox="0 0 32 32">
<title>hospital</title>
<path fill="#262637" style="fill: var(--color1, #262637)" d="M27 16.031c-0.344 0-0.675-0.037-1-0.1v6.594c0 4.119-3.587 7.469-8 7.469s-8-3.35-8-7.469v-0.556c4.494-0.5 8-4.319 8-8.944v-11.412c0-0.344-0.231-0.644-0.569-0.725l-3.463-0.863c-0.4-0.1-0.806 0.144-0.912 0.544l-0.119 0.487c-0.1 0.4 0.144 0.806 0.544 0.912l2.519 0.625v10.363c0 3.863-3.094 7.056-6.956 7.075-3.881 0.025-7.044-3.125-7.044-7v-10.438l2.513-0.631c0.4-0.1 0.644-0.506 0.544-0.913l-0.119-0.481c-0.1-0.4-0.506-0.644-0.912-0.544l-3.456 0.863c-0.338 0.081-0.569 0.381-0.569 0.725v11.412c0 4.625 3.506 8.444 8 8.944v0.556c0 5.225 4.488 9.475 10 9.475s10-4.25 10-9.469v-6.6c-0.325 0.063-0.656 0.1-1 0.1z"></path>
<path fill="#00deb6" style="fill: var(--color2, #00deb6)" d="M32 11.031c0 2.761-2.239 5-5 5s-5-2.239-5-5c0-2.761 2.239-5 5-5s5 2.239 5 5z"></path>
</symbol>
<symbol id="icon-market" viewBox="0 0 32 32">
<title>market</title>
<path fill="#262637" style="fill: var(--color1, #262637)" d="M6 19c0 0.552-0.448 1-1 1s-1-0.448-1-1c0-0.552 0.448-1 1-1s1 0.448 1 1z"></path>
<path fill="#262637" style="fill: var(--color1, #262637)" d="M6 27c0 0.552-0.448 1-1 1s-1-0.448-1-1c0-0.552 0.448-1 1-1s1 0.448 1 1z"></path>
<path fill="#262637" style="fill: var(--color1, #262637)" d="M28 19c0 0.552-0.448 1-1 1s-1-0.448-1-1c0-0.552 0.448-1 1-1s1 0.448 1 1z"></path>
<path fill="#262637" style="fill: var(--color1, #262637)" d="M28 27c0 0.552-0.448 1-1 1s-1-0.448-1-1c0-0.552 0.448-1 1-1s1 0.448 1 1z"></path>
<path fill="#262637" style="fill: var(--color1, #262637)" d="M31 14h-30c-0.55 0-1 0.45-1 1v16c0 0.55 0.45 1 1 1h30c0.55 0 1-0.45 1-1v-16c0-0.55-0.45-1-1-1zM30 30h-28v-6h28v6zM30 22h-28v-6h28v6z"></path>
<path fill="#00deb6" style="fill: var(--color2, #00deb6)" d="M20.575 4.319c0.488 0 0.938-0.063 1.35-0.194 0.587-0.15 1.069-0.4 1.425-0.731 0.331-0.362 0.575-0.837 0.725-1.425 0.131-0.412 0.194-0.863 0.194-1.35l-0.038-0.581-0.575-0.037c-0.488 0-0.938 0.063-1.344 0.2-0.587 0.15-1.069 0.4-1.425 0.731-0.488 0.487-0.788 1.194-0.887 2.119-0.050 0.462-0.050 0.869 0 1.231l0.575 0.037z"></path>
<path fill="#00deb6" style="fill: var(--color2, #00deb6)" d="M21.050 9.412v0 0.006c0.2 1.225 0.188 2.469-0.038 3.694-0.050 0.306-0.113 0.6-0.181 0.894h7.988c0.087-0.35 0.169-0.713 0.231-1.088 0.206-1.1 0.219-2.206 0.038-3.313-0.206-1.206-0.594-2.213-1.156-3.006-0.637-0.9-1.462-1.438-2.462-1.619-0.613-0.106-1.462-0.013-2.544 0.269-0.925 0.256-1.706 0.563-2.35 0.925-0.325-0.181-0.688-0.35-1.081-0.506 0.075 0.094 0.144 0.181 0.212 0.281 0.656 0.925 1.113 2.094 1.344 3.463z"></path>
<path fill="#00deb6" style="fill: var(--color2, #00deb6)" d="M3.188 14h16.488c0.087-0.35 0.169-0.713 0.231-1.088 0.206-1.1 0.219-2.206 0.038-3.313-0.206-1.206-0.594-2.213-1.156-3.006-0.637-0.9-1.462-1.438-2.462-1.619-0.613-0.106-1.463-0.013-2.544 0.269-0.925 0.256-1.706 0.563-2.35 0.925-0.644-0.362-1.425-0.669-2.35-0.925-1.081-0.281-1.925-0.369-2.544-0.269-1 0.181-1.819 0.719-2.462 1.619-0.569 0.794-0.95 1.8-1.156 3.006-0.181 1.1-0.169 2.206 0.038 3.313 0.063 0.375 0.138 0.738 0.231 1.088z"></path>
<path fill="#00deb6" style="fill: var(--color2, #00deb6)" d="M11.438 4.319c0.488 0 0.938-0.063 1.35-0.194 0.588-0.15 1.069-0.4 1.425-0.731 0.331-0.362 0.575-0.837 0.725-1.425 0.131-0.412 0.194-0.863 0.194-1.35l-0.037-0.581-0.575-0.037c-0.488 0-0.938 0.063-1.344 0.2-0.588 0.15-1.069 0.4-1.425 0.731-0.488 0.487-0.787 1.194-0.887 2.119-0.050 0.462-0.050 0.869 0 1.231l0.575 0.037z"></path>
</symbol>
<symbol id="icon-kid-garden" viewBox="0 0 34 32">
<title>kid-garden</title>
<path fill="#262637" style="fill: var(--color1, #262637)" d="M21.818 16.031h-9.519c-1.797 0-3.256-1.459-3.256-3.256v-9.519c0-1.797 1.459-3.256 3.256-3.256h9.519c1.797 0 3.256 1.459 3.256 3.256v9.519c0 1.797-1.465 3.256-3.256 3.256zM12.299 2.004c-0.689 0-1.252 0.564-1.252 1.252v9.519c0 0.689 0.564 1.252 1.252 1.252h9.519c0.689 0 1.252-0.564 1.252-1.252v-9.519c0-0.689-0.564-1.252-1.252-1.252h-9.519z"></path>
<path fill="#262637" style="fill: var(--color1, #262637)" d="M12.8 32h-9.519c-1.797 0-3.256-1.459-3.256-3.256v-9.519c0-1.797 1.459-3.256 3.256-3.256h9.519c1.797 0 3.256 1.459 3.256 3.256v9.519c0 1.797-1.465 3.256-3.256 3.256zM3.281 17.973c-0.689 0-1.252 0.564-1.252 1.252v9.519c0 0.689 0.564 1.252 1.252 1.252h9.519c0.689 0 1.252-0.564 1.252-1.252v-9.519c0-0.689-0.564-1.252-1.252-1.252h-9.519z"></path>
<path fill="#00deb6" style="fill: var(--color2, #00deb6)" d="M20.609 11.41c0 0.2-0.063 0.363-0.194 0.488s-0.282 0.188-0.451 0.188c-0.138 0-0.263-0.044-0.376-0.125s-0.194-0.2-0.257-0.344l-0.595-1.39h-3.419l-0.595 1.403c-0.056 0.144-0.138 0.257-0.244 0.338-0.113 0.081-0.232 0.119-0.363 0.119-0.2 0-0.351-0.056-0.451-0.163-0.106-0.106-0.157-0.251-0.157-0.438 0-0.069 0.013-0.144 0.038-0.219l2.862-6.87c0.063-0.15 0.15-0.269 0.276-0.357 0.125-0.081 0.263-0.119 0.413-0.106 0.138 0 0.263 0.038 0.382 0.119s0.207 0.194 0.257 0.338l2.824 6.732c0.031 0.113 0.050 0.207 0.050 0.288zM15.881 8.905h2.298l-1.159-2.687-1.14 2.687z"></path>
<path fill="#00deb6" style="fill: var(--color2, #00deb6)" d="M30.835 15.969h-9.519c-1.797 0-3.256 1.459-3.256 3.256v9.519c0 1.797 1.459 3.256 3.256 3.256h9.519c1.797 0 3.256-1.459 3.256-3.256v-9.519c0-1.797-1.459-3.256-3.256-3.256zM29.107 27.328c-0.063 0.1-0.144 0.169-0.257 0.225-0.582 0.294-1.202 0.438-1.86 0.438-0.733 0-1.403-0.157-2.016-0.463s-1.102-0.77-1.465-1.371c-0.363-0.607-0.551-1.34-0.551-2.198 0-0.764 0.175-1.447 0.52-2.048 0.344-0.607 0.827-1.077 1.44-1.415s1.303-0.507 2.073-0.507c0.664 0 1.284 0.144 1.847 0.438 0.232 0.119 0.344 0.313 0.344 0.57 0 0.157-0.056 0.313-0.169 0.457-0.119 0.157-0.276 0.238-0.457 0.238-0.125 0-0.257-0.031-0.382-0.1-0.363-0.169-0.764-0.257-1.19-0.257-0.526 0-0.977 0.113-1.365 0.332s-0.689 0.532-0.895 0.933c-0.207 0.401-0.313 0.858-0.313 1.371 0 0.883 0.238 1.553 0.714 2.004 0.476 0.457 1.096 0.683 1.866 0.683 0.457 0 0.852-0.088 1.19-0.257 0.131-0.063 0.257-0.088 0.357-0.088 0.194 0 0.357 0.081 0.495 0.244 0.113 0.144 0.169 0.294 0.169 0.457-0.006 0.106-0.038 0.219-0.094 0.313z"></path>
<path fill="#00deb6" style="fill: var(--color2, #00deb6)" d="M10.746 24.279c0.257 0.326 0.382 0.751 0.382 1.271 0 0.908-0.257 1.541-0.777 1.897s-1.133 0.539-1.854 0.539h-2.849c-0.2 0-0.363-0.069-0.495-0.2s-0.2-0.301-0.2-0.495v-6.613c0-0.2 0.069-0.363 0.2-0.495s0.301-0.2 0.495-0.2h2.881c1.447 0 2.173 0.676 2.173 2.035 0 0.344-0.081 0.645-0.244 0.908s-0.401 0.47-0.701 0.626c0.401 0.157 0.733 0.401 0.989 0.726zM8.98 21.567c-0.157-0.157-0.376-0.232-0.658-0.232h-1.885v1.785h1.922c0.232 0 0.426-0.075 0.601-0.232 0.169-0.15 0.257-0.357 0.257-0.62 0-0.313-0.081-0.545-0.238-0.701zM9.337 26.389c0.2-0.188 0.301-0.47 0.301-0.833 0-0.451-0.119-0.745-0.357-0.883s-0.526-0.207-0.87-0.207h-1.979v2.211h2.060c0.363-0.006 0.645-0.1 0.845-0.288z"></path>
</symbol>
<symbol id="icon-park" viewBox="0 0 32 32">
<title>park</title>
<path fill="#262637" style="fill: var(--color1, #262637)" d="M28.744 12.688c0.169-0.556 0.256-1.119 0.256-1.688 0-3.306-2.694-6-6-6-0.363 0-0.712 0.031-1.069 0.1-0.438-2.888-2.931-5.1-5.931-5.1s-5.494 2.219-5.931 5.1c-0.35-0.063-0.713-0.1-1.069-0.1-3.306 0-6 2.694-6 6 0 0.569 0.087 1.131 0.256 1.688-1.988 1.012-3.256 3.031-3.256 5.313 0 3.306 2.694 6 6 6h7v3.531l-1.512 3.025c-0.331 0.663 0.15 1.45 0.894 1.45h7.237c0.744 0 1.225-0.781 0.894-1.45l-1.512-3.031v-3.525h7c3.306 0 6-2.694 6-6 0-2.281-1.269-4.3-3.256-5.313v0zM14 30l1-2v-4h2v4l1 2h-4zM26 22h-20c-2.206 0-4-1.794-4-4 0-1.756 1.144-3.287 2.844-3.806l1.138-0.344-0.531-1.063c-0.294-0.588-0.444-1.188-0.444-1.787 0-2.206 1.794-4 4-4 0.894 0 1.244 0.181 3.2 1.063-0.181-1.981-0.144-1.588-0.2-2.063 0-2.206 1.794-4 4-4s4 1.794 3.988 4.15l-0.181 1.912c1.762-0.794 2.206-1.063 3.2-1.063 2.206 0 4 1.794 4 4 0 0.6-0.15 1.206-0.444 1.787l-0.531 1.063 1.137 0.344c1.7 0.519 2.844 2.050 2.844 3.806-0.019 2.206-1.813 4-4.019 4z"></path>
<path fill="#00deb6" style="fill: var(--color2, #00deb6)" d="M19 27.525l1.512 3.031c0.313 0.637-0.106 1.369-0.788 1.444h8.213v-5.938h-8.938v1.462z"></path>
<path fill="#00deb6" style="fill: var(--color2, #00deb6)" d="M11.488 30.556l1.512-3.025v-1.469h-8.938v5.938h8.213c-0.681-0.075-1.1-0.813-0.787-1.444z"></path>
<path fill="#00deb6" style="fill: var(--color2, #00deb6)" d="M12.537 17.631c0 1.529-1.24 2.769-2.769 2.769s-2.769-1.24-2.769-2.769c0-1.529 1.24-2.769 2.769-2.769s2.769 1.24 2.769 2.769z"></path>
<path fill="#00deb6" style="fill: var(--color2, #00deb6)" d="M24.231 15.156c0 1.267-1.027 2.294-2.294 2.294s-2.294-1.027-2.294-2.294c0-1.267 1.027-2.294 2.294-2.294s2.294 1.027 2.294 2.294z"></path>
<path fill="#00deb6" style="fill: var(--color2, #00deb6)" d="M15.894 9.938c0 0.849-0.688 1.537-1.537 1.537s-1.537-0.688-1.537-1.537c0-0.849 0.688-1.537 1.537-1.537s1.537 0.688 1.537 1.537z"></path>
</symbol>
<symbol id="icon-rent-price" viewBox="0 0 36 32">
<title>rent-price</title>
<path fill="#262637" style="fill: var(--color1, #262637)" d="M33.813 14.325c0 0 0 0 0 0v0l-3.813-3.113v-4.838c0-0.206-0.169-0.375-0.375-0.375h-1.25c-0.206 0-0.375 0.169-0.375 0.375v3.206l-8.738-7.138c-0.738-0.594-1.788-0.594-2.525 0l-14.55 11.881c-0.212 0.175-0.244 0.488-0.075 0.7l0.631 0.775c0.175 0.213 0.487 0.244 0.7 0.075l2.556-2.088v15.188c0 0.55 0.45 1 1 1h20.369c0.275 0 0.5-0.225 0.5-0.5v-0.969c0-0.275-0.225-0.5-0.5-0.5 0 0 0 0 0 0v0l-19.369-0.019v-15.831l10-8.162 14.556 11.881c0.212 0.175 0.531 0.144 0.706-0.075l0.631-0.775c0.169-0.213 0.138-0.525-0.081-0.7z"></path>
<path fill="#00deb6" style="fill: var(--color2, #00deb6)" d="M19.837 13.85h-3.669c-0.412 0-0.75-0.338-0.75-0.75v-3.669c0-0.412 0.338-0.75 0.75-0.75h3.669c0.413 0 0.75 0.338 0.75 0.75v3.669c0 0.412-0.337 0.75-0.75 0.75z"></path>
<path fill="#00deb6" style="fill: var(--color2, #00deb6)" d="M14.094 19.725c0.088 0.081 0.131 0.194 0.131 0.325 0 0.137-0.044 0.244-0.131 0.325s-0.2 0.119-0.344 0.119h-1.219v4.075c0 0.137-0.050 0.25-0.15 0.337-0.1 0.094-0.219 0.137-0.369 0.137-0.144 0-0.262-0.044-0.356-0.137s-0.137-0.206-0.137-0.337v-4.075h-1.219c-0.137 0-0.256-0.044-0.344-0.125s-0.131-0.194-0.131-0.325c0-0.131 0.044-0.238 0.137-0.319s0.206-0.125 0.338-0.125h3.45c0.144 0 0.256 0.044 0.344 0.125z"></path>
<path fill="#00deb6" style="fill: var(--color2, #00deb6)" d="M18.219 21.275c0.2 0.313 0.294 0.75 0.294 1.306v1.994c0 0.137-0.044 0.25-0.131 0.337-0.087 0.094-0.2 0.137-0.337 0.137s-0.244-0.044-0.337-0.137c-0.087-0.094-0.131-0.206-0.131-0.337v-1.994c0-0.288-0.056-0.512-0.169-0.675s-0.306-0.244-0.587-0.244c-0.288 0-0.519 0.087-0.681 0.262s-0.244 0.394-0.244 0.656v1.994c0 0.137-0.044 0.25-0.131 0.337-0.088 0.094-0.2 0.137-0.338 0.137s-0.244-0.044-0.338-0.137c-0.088-0.094-0.131-0.206-0.131-0.337v-4.806c0-0.137 0.044-0.25 0.131-0.337 0.088-0.094 0.2-0.137 0.338-0.137s0.244 0.044 0.338 0.137c0.088 0.094 0.131 0.206 0.131 0.337v1.719c0.138-0.188 0.319-0.344 0.531-0.481 0.212-0.131 0.456-0.2 0.719-0.2 0.525 0 0.881 0.156 1.075 0.469z"></path>
<path fill="#00deb6" style="fill: var(--color2, #00deb6)" d="M22.95 21.019c0.087 0.094 0.131 0.206 0.131 0.337v1.975c0 0.563-0.156 1-0.462 1.313-0.306 0.319-0.75 0.475-1.319 0.475s-1.006-0.156-1.313-0.475c-0.306-0.319-0.456-0.756-0.456-1.313v-1.975c0-0.137 0.044-0.25 0.131-0.337 0.087-0.094 0.2-0.137 0.337-0.137s0.244 0.044 0.337 0.137c0.087 0.094 0.131 0.206 0.131 0.337v1.975c0 0.319 0.069 0.55 0.212 0.706 0.137 0.15 0.35 0.231 0.631 0.231 0.288 0 0.5-0.075 0.637-0.231 0.137-0.15 0.212-0.387 0.212-0.706v-1.975c0-0.137 0.044-0.25 0.131-0.337 0.087-0.094 0.2-0.137 0.337-0.137 0.119 0 0.231 0.050 0.319 0.137z"></path>
<path fill="#00deb6" style="fill: var(--color2, #00deb6)" d="M27.681 23.175c-0.094 0.075-0.2 0.119-0.325 0.119h-2.569c0.063 0.306 0.206 0.544 0.425 0.719 0.225 0.175 0.475 0.262 0.756 0.262 0.212 0 0.381-0.019 0.5-0.056s0.212-0.081 0.281-0.125c0.069-0.044 0.119-0.075 0.144-0.087 0.094-0.044 0.181-0.069 0.262-0.069 0.106 0 0.2 0.038 0.281 0.119s0.119 0.169 0.119 0.275c0 0.137-0.075 0.269-0.219 0.381-0.144 0.119-0.337 0.219-0.581 0.306-0.244 0.081-0.488 0.125-0.738 0.125-0.438 0-0.819-0.094-1.137-0.275-0.325-0.181-0.575-0.431-0.75-0.75s-0.262-0.681-0.262-1.075c0-0.444 0.094-0.837 0.281-1.175s0.431-0.594 0.738-0.775c0.306-0.181 0.631-0.269 0.981-0.269 0.344 0 0.663 0.094 0.969 0.281s0.544 0.438 0.725 0.756c0.181 0.319 0.275 0.656 0.275 1.025-0.012 0.106-0.063 0.206-0.156 0.288zM26.856 20.075c0.012 0.031 0.012 0.069 0.012 0.119s-0.025 0.1-0.069 0.137c-0.044 0.038-0.1 0.056-0.169 0.056-0.075 0-0.137-0.012-0.175-0.031s-0.075-0.050-0.119-0.081c-0.038-0.031-0.069-0.056-0.087-0.075l-0.413-0.369-0.444 0.369c-0.019 0.012-0.056 0.044-0.1 0.081s-0.087 0.069-0.131 0.081c-0.044 0.012-0.094 0.025-0.156 0.025-0.069 0-0.125-0.019-0.169-0.056s-0.069-0.081-0.069-0.137c0-0.044 0.006-0.087 0.012-0.119 0.012-0.031 0.038-0.075 0.075-0.125l0.381-0.481c0.119-0.15 0.275-0.225 0.475-0.225h0.281c0.106 0 0.188 0.012 0.244 0.044 0.063 0.031 0.119 0.094 0.175 0.181l0.344 0.481c0.063 0.050 0.094 0.094 0.1 0.125zM24.794 22.512h2.038v-0.056c-0.019-0.219-0.125-0.406-0.319-0.563s-0.413-0.231-0.656-0.231c-0.594 0-0.95 0.281-1.063 0.85z"></path>
</symbol>
<symbol id="icon-rent-qty" viewBox="0 0 31 32">
<title>rent-qty</title>
<path fill="#262637" style="fill: var(--color1, #262637)" d="M27.513 11.912l-11.575-9.098c-0.227-0.179-0.537-0.179-0.764 0l-11.699 9.098c-1.934 0.124-3.475 1.741-3.475 3.709v12.662c0 2.051 1.665 3.716 3.716 3.716h23.535c2.051 0 3.716-1.665 3.716-3.716v-12.662c0-1.961-1.528-3.572-3.455-3.709zM15.553 4.088l9.944 7.818h-19.991l10.047-7.818zM28.49 28.284c0 0.681-0.557 1.239-1.239 1.239h-23.535c-0.681 0-1.239-0.557-1.239-1.239v-12.662c0-0.681 0.557-1.239 1.239-1.239h23.535c0.681 0 1.239 0.557 1.239 1.239v12.662z"></path>
<path fill="#00deb6" style="fill: var(--color2, #00deb6)" d="M18.856 3.303c0 1.824-1.479 3.303-3.303 3.303s-3.303-1.479-3.303-3.303c0-1.824 1.479-3.303 3.303-3.303s3.303 1.479 3.303 3.303z"></path>
<path fill="#00deb6" style="fill: var(--color2, #00deb6)" d="M9.325 18.76c0.117 0.11 0.172 0.248 0.172 0.427 0 0.172-0.055 0.317-0.172 0.42s-0.261 0.158-0.44 0.158h-1.583v5.278c0 0.172-0.062 0.323-0.193 0.44s-0.289 0.179-0.475 0.179c-0.186 0-0.344-0.062-0.461-0.179-0.124-0.117-0.179-0.262-0.179-0.44v-5.278h-1.59c-0.179 0-0.33-0.055-0.44-0.158-0.117-0.11-0.172-0.248-0.172-0.427 0-0.165 0.062-0.303 0.179-0.413s0.261-0.158 0.44-0.158h4.473c0.179-0.014 0.323 0.041 0.44 0.151z"></path>
<path fill="#00deb6" style="fill: var(--color2, #00deb6)" d="M14.665 20.769c0.255 0.406 0.385 0.97 0.385 1.686v2.581c0 0.172-0.055 0.323-0.172 0.44s-0.261 0.179-0.434 0.179c-0.172 0-0.317-0.062-0.434-0.179s-0.172-0.262-0.172-0.44v-2.581c0-0.372-0.076-0.661-0.213-0.874-0.145-0.213-0.399-0.317-0.764-0.317-0.379 0-0.668 0.11-0.881 0.337s-0.317 0.509-0.317 0.853v2.581c0 0.172-0.055 0.323-0.172 0.44s-0.261 0.179-0.434 0.179c-0.172 0-0.317-0.062-0.434-0.179s-0.172-0.262-0.172-0.44v-6.228c0-0.172 0.055-0.323 0.172-0.44s0.261-0.179 0.434-0.179c0.172 0 0.317 0.062 0.434 0.179s0.172 0.262 0.172 0.44v2.23c0.179-0.241 0.413-0.447 0.688-0.619 0.282-0.172 0.592-0.255 0.929-0.255 0.668 0 1.129 0.2 1.383 0.606z"></path>
<path fill="#00deb6" style="fill: var(--color2, #00deb6)" d="M20.797 20.439c0.117 0.117 0.172 0.262 0.172 0.44v2.56c0 0.723-0.2 1.294-0.599 1.707s-0.97 0.612-1.707 0.612c-0.736 0-1.308-0.206-1.707-0.612-0.399-0.413-0.592-0.977-0.592-1.707v-2.56c0-0.172 0.055-0.323 0.172-0.44s0.262-0.179 0.434-0.179c0.172 0 0.317 0.062 0.434 0.179s0.172 0.262 0.172 0.44v2.56c0 0.413 0.089 0.716 0.275 0.915 0.179 0.2 0.454 0.296 0.819 0.296 0.372 0 0.647-0.096 0.826-0.296s0.275-0.502 0.275-0.915v-2.56c0-0.172 0.055-0.323 0.172-0.44s0.262-0.179 0.434-0.179c0.158 0 0.303 0.062 0.42 0.179z"></path>
<path fill="#00deb6" style="fill: var(--color2, #00deb6)" d="M26.921 23.226c-0.124 0.103-0.262 0.151-0.427 0.151h-3.324c0.083 0.399 0.268 0.709 0.557 0.929 0.289 0.227 0.612 0.337 0.977 0.337 0.275 0 0.489-0.028 0.647-0.076 0.151-0.048 0.275-0.103 0.365-0.158s0.151-0.096 0.186-0.117c0.124-0.062 0.234-0.089 0.344-0.089 0.145 0 0.262 0.048 0.365 0.151s0.151 0.22 0.151 0.351c0 0.179-0.096 0.344-0.282 0.495s-0.44 0.289-0.757 0.392c-0.317 0.11-0.633 0.158-0.957 0.158-0.564 0-1.060-0.117-1.48-0.351s-0.743-0.557-0.97-0.97c-0.227-0.413-0.344-0.881-0.344-1.397 0-0.578 0.124-1.087 0.365-1.521s0.564-0.771 0.957-1.005c0.399-0.234 0.819-0.351 1.273-0.351 0.44 0 0.86 0.124 1.252 0.365s0.709 0.571 0.943 0.977c0.234 0.413 0.351 0.853 0.351 1.328-0.007 0.165-0.069 0.296-0.193 0.399zM25.855 19.214c0.014 0.041 0.021 0.089 0.021 0.151 0 0.069-0.028 0.124-0.083 0.179-0.055 0.048-0.131 0.076-0.213 0.076-0.103 0-0.179-0.014-0.227-0.041s-0.103-0.062-0.151-0.103c-0.048-0.041-0.089-0.076-0.117-0.096l-0.537-0.475-0.571 0.475c-0.028 0.021-0.069 0.055-0.124 0.103s-0.11 0.083-0.165 0.103c-0.055 0.021-0.124 0.028-0.2 0.028-0.089 0-0.158-0.028-0.213-0.076s-0.083-0.11-0.083-0.179c0-0.062 0.007-0.11 0.021-0.151s0.048-0.096 0.103-0.158l0.495-0.626c0.151-0.193 0.358-0.289 0.612-0.289h0.365c0.138 0 0.241 0.021 0.317 0.062s0.151 0.117 0.227 0.234l0.44 0.626c0.034 0.062 0.069 0.117 0.083 0.158zM23.185 22.366h2.643v-0.069c-0.028-0.282-0.165-0.523-0.413-0.723s-0.53-0.303-0.846-0.303c-0.785 0-1.246 0.365-1.383 1.094z"></path>
</symbol>
<symbol id="icon-sale-price" viewBox="0 0 36 32">
<title>sale-price</title>
<path fill="#262637" style="fill: var(--color1, #262637)" d="M33.813 14.325c0 0 0 0 0 0v0l-3.813-3.113v-4.838c0-0.206-0.169-0.375-0.375-0.375h-1.25c-0.206 0-0.375 0.169-0.375 0.375v3.206l-8.738-7.138c-0.738-0.594-1.788-0.594-2.525 0l-14.55 11.881c-0.212 0.175-0.244 0.488-0.075 0.7l0.631 0.775c0.175 0.213 0.487 0.244 0.7 0.075l2.556-2.088v15.188c0 0.55 0.45 1 1 1h11.594c0.275 0 0.5-0.225 0.5-0.5v-0.969c0-0.275-0.225-0.5-0.5-0.5 0 0 0 0 0 0v0l-10.594-0.019v-15.831l10-8.162 14.556 11.881c0.212 0.175 0.531 0.144 0.706-0.075l0.631-0.775c0.169-0.213 0.138-0.525-0.081-0.7z"></path>
<path fill="#262637" style="fill: var(--color1, #262637)" d="M27.006 15.988c-3.863 0-6.994 3.131-6.994 6.994s3.131 6.994 6.994 6.994 6.994-3.131 6.994-6.994-3.131-6.994-6.994-6.994zM27.006 28.006c-2.775 0-5.025-2.25-5.025-5.025s2.25-5.025 5.025-5.025 5.025 2.25 5.025 5.025-2.25 5.025-5.025 5.025z"></path>
<path fill="#00deb6" style="fill: var(--color2, #00deb6)" d="M28.819 25.344c-0.306 0.313-0.694 0.519-1.169 0.625v0.544c0 0.15-0.050 0.281-0.156 0.381-0.1 0.1-0.231 0.156-0.381 0.156-0.144 0-0.269-0.050-0.369-0.156-0.1-0.1-0.15-0.231-0.15-0.381v-0.494c-0.319-0.031-0.606-0.094-0.863-0.2-0.262-0.106-0.512-0.262-0.756-0.475-0.156-0.137-0.238-0.294-0.238-0.462 0-0.137 0.050-0.25 0.15-0.356 0.1-0.1 0.219-0.156 0.363-0.156 0.113 0 0.212 0.038 0.3 0.106 0.181 0.144 0.356 0.262 0.519 0.344 0.163 0.087 0.344 0.144 0.538 0.169v-1.712c-1.175-0.219-1.762-0.806-1.762-1.762 0-0.488 0.163-0.887 0.494-1.2 0.325-0.313 0.75-0.506 1.275-0.575v-0.288c0-0.15 0.050-0.281 0.156-0.381 0.1-0.1 0.231-0.156 0.381-0.156 0.144 0 0.269 0.050 0.369 0.156 0.1 0.1 0.15 0.231 0.15 0.381v0.325c0.5 0.087 0.906 0.269 1.231 0.544 0.169 0.137 0.256 0.288 0.256 0.462 0 0.137-0.050 0.25-0.15 0.356-0.1 0.1-0.219 0.156-0.35 0.156-0.087 0-0.169-0.025-0.238-0.081-0.175-0.144-0.425-0.275-0.744-0.375v1.625c0.569 0.137 0.981 0.331 1.238 0.594s0.387 0.644 0.387 1.144c-0.025 0.45-0.181 0.831-0.481 1.144zM26.056 21.944c0.125 0.119 0.306 0.212 0.544 0.288v-1.456c-0.238 0.044-0.419 0.131-0.544 0.256s-0.181 0.275-0.181 0.45c-0.006 0.188 0.056 0.344 0.181 0.462zM28.063 24.637c0.106-0.113 0.156-0.238 0.156-0.375 0-0.163-0.044-0.306-0.137-0.425s-0.238-0.219-0.431-0.3v1.375c0.169-0.069 0.306-0.163 0.413-0.275z"></path>
<path fill="#00deb6" style="fill: var(--color2, #00deb6)" d="M19.837 13.85h-3.669c-0.412 0-0.75-0.338-0.75-0.75v-3.669c0-0.412 0.338-0.75 0.75-0.75h3.669c0.413 0 0.75 0.338 0.75 0.75v3.669c0 0.412-0.337 0.75-0.75 0.75z"></path>
</symbol>
<symbol id="icon-sale-qty" viewBox="0 0 31 32">
<title>sale-qty</title>
<path fill="#262637" style="fill: var(--color1, #262637)" d="M27.513 11.912l-11.575-9.098c-0.227-0.179-0.537-0.179-0.764 0l-11.699 9.098c-1.934 0.124-3.475 1.741-3.475 3.709v12.662c0 2.051 1.665 3.716 3.716 3.716h23.535c2.051 0 3.716-1.665 3.716-3.716v-12.662c0-1.961-1.528-3.572-3.455-3.709zM15.553 4.088l9.944 7.818h-19.991l10.047-7.818zM28.49 28.284c0 0.681-0.557 1.239-1.239 1.239h-23.535c-0.681 0-1.239-0.557-1.239-1.239v-12.662c0-0.681 0.557-1.239 1.239-1.239h23.535c0.681 0 1.239 0.557 1.239 1.239v12.662z"></path>
<path fill="#00deb6" style="fill: var(--color2, #00deb6)" d="M18.856 3.303c0 1.824-1.479 3.303-3.303 3.303s-3.303-1.479-3.303-3.303c0-1.824 1.479-3.303 3.303-3.303s3.303 1.479 3.303 3.303z"></path>
<path fill="#00deb6" style="fill: var(--color2, #00deb6)" d="M11.396 22.304c0.261 0.337 0.392 0.764 0.392 1.294 0 0.929-0.261 1.576-0.791 1.941s-1.163 0.551-1.892 0.551h-2.911c-0.2 0-0.372-0.069-0.509-0.206s-0.206-0.303-0.206-0.509v-6.751c0-0.2 0.069-0.372 0.206-0.509s0.303-0.206 0.509-0.206h2.945c1.48 0 2.216 0.695 2.216 2.078 0 0.351-0.083 0.661-0.248 0.929s-0.406 0.482-0.716 0.64c0.406 0.172 0.743 0.42 1.005 0.75zM9.6 19.53c-0.158-0.158-0.385-0.241-0.674-0.241h-1.927v1.824h1.961c0.234 0 0.44-0.076 0.612-0.234s0.261-0.365 0.261-0.633c0.007-0.317-0.076-0.551-0.234-0.716zM9.958 24.458c0.206-0.193 0.31-0.482 0.31-0.853 0-0.461-0.124-0.757-0.365-0.901-0.241-0.138-0.537-0.213-0.888-0.213h-2.023v2.257h2.106c0.372 0 0.654-0.096 0.86-0.289z"></path>
<path fill="#00deb6" style="fill: var(--color2, #00deb6)" d="M18.574 19.923c0.131 0.131 0.2 0.303 0.2 0.516v4.941c0 0.2-0.069 0.372-0.2 0.509s-0.303 0.206-0.502 0.206c-0.2 0-0.365-0.069-0.495-0.2s-0.2-0.303-0.206-0.502c-0.193 0.227-0.454 0.42-0.791 0.578-0.33 0.158-0.681 0.241-1.046 0.241-0.537 0-1.025-0.138-1.459-0.413s-0.778-0.661-1.032-1.149c-0.255-0.489-0.379-1.046-0.379-1.672s0.124-1.184 0.372-1.679c0.248-0.495 0.592-0.881 1.025-1.156s0.908-0.413 1.431-0.413c0.372 0 0.723 0.069 1.053 0.206s0.606 0.31 0.833 0.523v-0.021c0-0.2 0.069-0.372 0.2-0.509s0.303-0.206 0.502-0.206c0.2 0 0.365 0.069 0.495 0.2zM16.95 24.368c0.317-0.372 0.482-0.833 0.482-1.397 0-0.557-0.158-1.025-0.482-1.404-0.317-0.372-0.729-0.557-1.239-0.557-0.495 0-0.908 0.186-1.225 0.557s-0.482 0.84-0.482 1.404c0 0.557 0.158 1.025 0.475 1.397s0.729 0.557 1.232 0.557c0.509 0 0.922-0.186 1.239-0.557zM15.594 19.338c-0.089-0.069-0.131-0.165-0.124-0.282 0-0.069 0.021-0.145 0.069-0.22l0.674-1.191c0.076-0.138 0.172-0.255 0.282-0.337s0.227-0.131 0.365-0.131c0.213 0 0.365 0.055 0.475 0.165 0.103 0.11 0.151 0.248 0.145 0.42-0.014 0.179-0.089 0.344-0.22 0.502l-0.888 0.984c-0.124 0.131-0.303 0.2-0.523 0.2-0.083 0-0.165-0.034-0.255-0.11z"></path>
<path fill="#00deb6" style="fill: var(--color2, #00deb6)" d="M25.277 20.432c0.303 0.468 0.454 1.122 0.454 1.954v2.994c0 0.2-0.069 0.372-0.2 0.509s-0.303 0.206-0.502 0.206c-0.2 0-0.372-0.069-0.502-0.206s-0.2-0.303-0.2-0.509v-2.994c0-0.427-0.089-0.764-0.268-1.012s-0.489-0.365-0.922-0.365c-0.454 0-0.805 0.131-1.060 0.392s-0.385 0.592-0.385 0.984v2.994c0 0.2-0.069 0.372-0.2 0.509s-0.303 0.206-0.502 0.206c-0.2 0-0.372-0.069-0.502-0.206s-0.2-0.303-0.2-0.509v-4.824c0-0.2 0.069-0.372 0.2-0.509s0.303-0.206 0.502-0.206c0.2 0 0.372 0.069 0.502 0.206s0.2 0.303 0.2 0.509v0.2c0.213-0.282 0.482-0.523 0.826-0.723 0.337-0.2 0.709-0.303 1.115-0.303 0.798-0.007 1.342 0.234 1.645 0.702z"></path>
</symbol>
<symbol id="icon-school" viewBox="0 0 32 32">
<title>school</title>
<path fill="#262637" style="fill: var(--color1, #262637)" d="M30.452 19.831h-28.58c-1.030 0-1.872 0.842-1.872 1.872v8.424c0 1.030 0.842 1.872 1.872 1.872h28.58c1.030 0 1.872-0.842 1.872-1.872v-8.424c0-1.030-0.842-1.872-1.872-1.872zM10.39 22.078h11.544v7.675h-11.544v-7.675zM9.267 29.753h-1.997v-7.675h1.997v7.675zM23.058 22.078h1.997v7.675h-1.997v-7.675zM2.247 22.078h3.9v7.675h-3.9v-7.675zM30.078 29.753h-3.9v-7.675h3.9v7.675z"></path>
<path fill="#00deb6" style="fill: var(--color2, #00deb6)" d="M21.042 4.967c0.998 0.181 1.822 0.718 2.459 1.616 0.562 0.793 0.949 1.797 1.154 3.002 0.181 1.105 0.169 2.209-0.037 3.307-0.306 1.822-0.924 3.351-1.847 4.58-1.105 1.491-2.484 2.234-4.15 2.234-0.412 0-0.861-0.131-1.348-0.387-0.331-0.206-0.705-0.306-1.117-0.306s-0.78 0.1-1.117 0.306c-0.487 0.256-0.936 0.387-1.348 0.387-1.666 0-3.051-0.743-4.15-2.234-0.924-1.229-1.535-2.758-1.847-4.58-0.206-1.105-0.218-2.209-0.037-3.307 0.206-1.204 0.587-2.209 1.154-3.002 0.643-0.899 1.46-1.435 2.459-1.616 0.618-0.1 1.46-0.012 2.54 0.268 0.924 0.256 1.704 0.562 2.346 0.924 0.643-0.362 1.423-0.668 2.346-0.924 1.080-0.281 1.928-0.374 2.54-0.268zM18.933 3.388c-0.356 0.331-0.836 0.58-1.423 0.73-0.412 0.131-0.861 0.193-1.348 0.193l-0.574-0.037c-0.050-0.362-0.050-0.768 0-1.229 0.1-0.924 0.399-1.629 0.886-2.115 0.356-0.331 0.836-0.58 1.423-0.73 0.406-0.137 0.855-0.2 1.342-0.2l0.574 0.037 0.037 0.58c0 0.487-0.062 0.936-0.193 1.348-0.15 0.587-0.393 1.061-0.724 1.423v0z"></path>
</symbol>
<symbol id="icon-super-market" viewBox="0 0 36 32">
<title>super-market</title>
<path fill="#00deb6" style="fill: var(--color2, #00deb6)" d="M17.106 28c0 2.268-1.838 4.106-4.106 4.106s-4.106-1.838-4.106-4.106c0-2.268 1.838-4.106 4.106-4.106s4.106 1.838 4.106 4.106z"></path>
<path fill="#00deb6" style="fill: var(--color2, #00deb6)" d="M33.106 28c0 2.268-1.838 4.106-4.106 4.106s-4.106-1.838-4.106-4.106c0-2.268 1.838-4.106 4.106-4.106s4.106 1.838 4.106 4.106z"></path>
<path fill="#262637" style="fill: var(--color1, #262637)" d="M16.587 26h8.825c0.556-0.994 1.512-1.738 2.656-2h-14.137c1.144 0.262 2.1 1.006 2.656 2z"></path>
<path fill="#262637" style="fill: var(--color1, #262637)" d="M34.5 4h-26.419l-0.519-2.775c-0.138-0.713-0.756-1.225-1.475-1.225h-5.338c-0.412 0-0.75 0.338-0.75 0.75v0.5c0 0.413 0.338 0.75 0.75 0.75h4.919l4.344 23.181c0.544-0.575 1.25-0.994 2.050-1.181h-0.238l-0.75-4h20.712c0.713 0 1.325-0.5 1.469-1.194l2.706-13c0.2-0.931-0.513-1.806-1.462-1.806zM31.387 18h-20.681l-2.25-12h25.431l-2.5 12z"></path>
<path fill="#00deb6" style="fill: var(--color2, #00deb6)" d="M32.1 4l0.45-1.456c0.244-0.788-0.2-1.631-0.994-1.875l-1.944-0.6c-0.788-0.244-1.631 0.2-1.875 0.994l-0.906 2.938h5.269z"></path>
<path fill="#00deb6" style="fill: var(--color2, #00deb6)" d="M8.525 4h1.537l-0.113-0.513 4.713-1.031 0.294 1.35c0 0 0 0 0 0l0.044 0.194h5.619l-0.3-1.362c-0.175-0.806-0.981-1.319-1.788-1.144l-2.431 0.531c0 0 0 0-0.006 0-0.225-0.744-0.988-1.2-1.756-1.031l-4.713 1.031c-0.806 0.175-1.319 0.981-1.144 1.788l0.044 0.187z"></path>
</symbol>
</defs>
</svg>
