<svg xmlns="http://www.w3.org/2000/svg" xmlns:xlink="http://www.w3.org/1999/xlink" width="500" zoomAndPan="magnify" viewBox="0 0 375 374.999991" height="500" preserveAspectRatio="xMidYMid meet" version="1.0"><defs><g/><clipPath id="id1"><path d="M 162 264 L 213 264 L 213 292.429688 L 162 292.429688 Z M 162 264 " clip-rule="nonzero"/></clipPath><clipPath id="id2"><path d="M 33.042969 4.429688 L 342.042969 4.429688 L 342.042969 292.429688 L 33.042969 292.429688 Z M 33.042969 4.429688 " clip-rule="nonzero"/></clipPath><clipPath id="id3"><path d="M 139 28 L 342.042969 28 L 342.042969 292.429688 L 139 292.429688 Z M 139 28 " clip-rule="nonzero"/></clipPath></defs><g clip-path="url(#id1)"><path fill="rgb(9.799194%, 41.958618%, 67.059326%)" d="M 212.925781 264.414062 L 192.238281 264.414062 L 162.15625 292.375 L 182.847656 292.375 Z M 212.925781 264.414062 " fill-opacity="1" fill-rule="nonzero"/></g><g clip-path="url(#id2)"><path fill="rgb(10.5896%, 45.878601%, 73.329163%)" d="M 337.207031 141.441406 L 202.3125 16.0625 L 192.382812 6.375 C 191.042969 5.066406 189.285156 4.46875 187.542969 4.53125 C 185.796875 4.46875 184.039062 5.066406 182.699219 6.375 L 172.777344 16.058594 L 117.042969 67.859375 L 117.042969 56.855469 C 117.042969 54.625 115.234375 52.816406 113.003906 52.816406 L 78.023438 52.816406 C 75.792969 52.816406 73.984375 54.625 73.984375 56.855469 L 73.984375 107.878906 L 37.875 141.441406 C 34.789062 144.308594 33.035156 148.335938 33.035156 152.550781 L 33.035156 167.453125 C 33.035156 170.003906 35.101562 172.078125 37.65625 172.078125 L 73.980469 172.078125 L 73.980469 265.332031 C 73.980469 280.265625 86.078125 292.375 101 292.375 L 274.082031 292.375 C 289.003906 292.375 301.097656 280.265625 301.097656 265.332031 L 301.097656 172.078125 L 337.425781 172.078125 C 339.976562 172.078125 342.046875 170.003906 342.046875 167.453125 L 342.046875 152.550781 C 342.050781 148.335938 340.292969 144.308594 337.207031 141.441406 Z M 271.726562 253.925781 C 271.726562 259.71875 267.035156 264.414062 261.246094 264.414062 L 113.835938 264.414062 C 108.046875 264.414062 103.359375 259.71875 103.359375 253.925781 L 103.359375 200.257812 C 122.136719 225.972656 152.21875 241.316406 184.03125 241.316406 L 184.300781 241.316406 C 188.164062 241.308594 189.484375 238.234375 189.796875 237.292969 C 190.4375 235.367188 190.277344 232.679688 187.988281 230.777344 L 179.746094 224.566406 C 177.960938 223.222656 177.367188 220.683594 178.617188 218.828125 C 179.949219 216.851562 182.644531 216.417969 184.519531 217.832031 L 184.523438 217.835938 L 192.675781 223.964844 C 192.808594 224.0625 192.941406 224.167969 193.070312 224.269531 L 206.9375 234.71875 C 209.863281 236.917969 213.882812 237.035156 217.027344 234.761719 C 218.578125 233.648438 219.695312 231.976562 220.164062 230.125 C 221.027344 226.726562 219.847656 223.355469 217.140625 221.277344 L 200.457031 208.714844 C 198.863281 207.515625 198.214844 205.332031 199.085938 203.539062 C 200.265625 201.125 203.253906 200.480469 205.292969 202.023438 L 222.042969 214.636719 C 222.070312 214.65625 222.101562 214.679688 222.128906 214.699219 L 231.457031 221.730469 C 234.378906 223.929688 238.4375 224.25 241.476562 222.207031 C 243.867188 220.601562 245.242188 217.980469 245.222656 215.128906 C 245.207031 212.511719 244.011719 210.101562 241.9375 208.507812 L 220.871094 192.636719 C 219.273438 191.4375 218.625 189.253906 219.5 187.460938 C 220.679688 185.046875 223.667969 184.40625 225.703125 185.945312 L 246.824219 201.851562 C 246.859375 201.875 246.890625 201.898438 246.925781 201.929688 L 249.984375 204.234375 C 253.570312 206.9375 259.085938 206.511719 261.90625 203.011719 C 263.324219 201.253906 263.96875 199.058594 263.726562 196.816406 C 263.46875 194.382812 262.058594 192.210938 260.101562 190.742188 L 203.054688 147.777344 C 198.046875 144.007812 191.152344 144.003906 186.136719 147.765625 L 170.097656 159.808594 C 159.902344 167.460938 145.671875 167.449219 135.488281 159.777344 C 132.582031 157.589844 130.964844 154.214844 131.074219 150.5625 C 131.183594 147.085938 133.050781 143.894531 135.828125 141.804688 L 163.460938 121.066406 C 165.628906 119.433594 163.816406 116.027344 161.25 116.921875 L 115.835938 132.804688 C 111.804688 134.214844 107.589844 134.949219 103.355469 135.035156 L 103.355469 133.382812 L 184.050781 58.382812 C 186.019531 56.554688 189.066406 56.554688 191.03125 58.382812 L 271.726562 133.382812 Z M 271.726562 253.925781 " fill-opacity="1" fill-rule="nonzero"/></g><g clip-path="url(#id3)"><path fill="rgb(46.669006%, 63.139343%, 83.529663%)" d="M 337.207031 141.441406 L 215.949219 28.738281 L 184.050781 58.382812 C 186.019531 56.554688 189.066406 56.554688 191.03125 58.382812 L 271.726562 133.382812 L 271.726562 133.703125 L 267.609375 134.457031 C 260.304688 135.800781 252.769531 135.097656 245.835938 132.429688 L 203.066406 115.960938 C 195.230469 112.941406 186.386719 114.171875 179.671875 119.21875 L 140.449219 148.65625 C 139.730469 149.195312 139.324219 150.019531 139.320312 150.917969 C 139.320312 151.816406 139.726562 152.636719 140.445312 153.175781 C 147.710938 158.648438 157.867188 158.65625 165.140625 153.195312 L 181.179688 141.15625 C 189.085938 135.21875 200.121094 135.230469 208.015625 141.175781 L 265.015625 184.097656 C 268.449219 186.683594 270.933594 190.402344 271.726562 194.617188 L 271.726562 253.925781 C 271.726562 259.71875 267.035156 264.414062 261.246094 264.414062 L 199.683594 264.414062 L 169.597656 292.375 L 274.085938 292.375 C 289.007812 292.375 301.101562 280.265625 301.101562 265.332031 L 301.101562 172.078125 L 337.429688 172.078125 C 339.980469 172.078125 342.050781 170.003906 342.050781 167.453125 L 342.050781 152.550781 C 342.050781 148.335938 340.292969 144.308594 337.207031 141.441406 Z M 337.207031 141.441406 " fill-opacity="1" fill-rule="nonzero"/><path fill="rgb(46.669006%, 63.139343%, 83.529663%)" d="M 337.207031 141.441406 L 215.949219 28.738281 L 184.050781 58.382812 C 186.019531 56.554688 189.066406 56.554688 191.03125 58.382812 L 271.726562 133.382812 L 271.726562 133.703125 L 267.609375 134.457031 C 260.304688 135.800781 252.769531 135.097656 245.835938 132.429688 L 203.066406 115.960938 C 195.230469 112.941406 186.386719 114.171875 179.671875 119.21875 L 140.449219 148.65625 C 139.730469 149.195312 139.324219 150.019531 139.320312 150.917969 C 139.320312 151.816406 139.726562 152.636719 140.445312 153.175781 C 147.710938 158.648438 157.867188 158.65625 165.140625 153.195312 L 181.179688 141.15625 C 189.085938 135.21875 200.121094 135.230469 208.015625 141.175781 L 265.015625 184.097656 C 268.449219 186.683594 270.933594 190.402344 271.726562 194.617188 L 271.726562 253.925781 C 271.726562 259.71875 267.035156 264.414062 261.246094 264.414062 L 199.683594 264.414062 L 169.597656 292.375 L 274.085938 292.375 C 289.007812 292.375 301.101562 280.265625 301.101562 265.332031 L 301.101562 172.078125 L 337.429688 172.078125 C 339.980469 172.078125 342.050781 170.003906 342.050781 167.453125 L 342.050781 152.550781 C 342.050781 148.335938 340.292969 144.308594 337.207031 141.441406 Z M 337.207031 141.441406 " fill-opacity="1" fill-rule="nonzero"/></g><path fill="rgb(42.749023%, 58.039856%, 76.469421%)" d="M 191.371094 51.582031 L 184.050781 58.382812 C 186.019531 56.554688 189.066406 56.554688 191.03125 58.382812 L 197.886719 64.753906 L 226.292969 38.351562 L 215.949219 28.738281 Z M 191.371094 51.582031 " fill-opacity="1" fill-rule="nonzero"/><g fill="rgb(9.799194%, 41.958618%, 67.059326%)" fill-opacity="1"><g transform="translate(77.015624, 336.500047)"><g><path d="M 28.9375 0 L 20.796875 0 L 20.796875 -12.21875 L 11.375 -12.21875 L 11.375 0 L 3.234375 0 L 3.234375 -29.984375 L 11.375 -29.984375 L 11.375 -18.875 L 20.796875 -18.875 L 20.796875 -29.984375 L 28.9375 -29.984375 Z M 28.9375 0 "/></g></g></g><g fill="rgb(9.799194%, 41.958618%, 67.059326%)" fill-opacity="1"><g transform="translate(109.183408, 336.500047)"><g><path d="M 24.953125 -11.671875 C 24.953125 -7.867188 23.929688 -4.90625 21.890625 -2.78125 C 19.847656 -0.65625 16.988281 0.40625 13.3125 0.40625 C 9.78125 0.40625 6.972656 -0.675781 4.890625 -2.84375 C 2.804688 -5.019531 1.765625 -7.960938 1.765625 -11.671875 C 1.765625 -15.453125 2.785156 -18.390625 4.828125 -20.484375 C 6.867188 -22.585938 9.738281 -23.640625 13.4375 -23.640625 C 15.71875 -23.640625 17.734375 -23.15625 19.484375 -22.1875 C 21.234375 -21.21875 22.582031 -19.828125 23.53125 -18.015625 C 24.476562 -16.203125 24.953125 -14.085938 24.953125 -11.671875 Z M 9.90625 -11.671875 C 9.90625 -9.671875 10.171875 -8.144531 10.703125 -7.09375 C 11.234375 -6.050781 12.128906 -5.53125 13.390625 -5.53125 C 14.640625 -5.53125 15.519531 -6.050781 16.03125 -7.09375 C 16.539062 -8.144531 16.796875 -9.671875 16.796875 -11.671875 C 16.796875 -13.648438 16.535156 -15.144531 16.015625 -16.15625 C 15.492188 -17.164062 14.601562 -17.671875 13.34375 -17.671875 C 12.113281 -17.671875 11.234375 -17.164062 10.703125 -16.15625 C 10.171875 -15.15625 9.90625 -13.660156 9.90625 -11.671875 Z M 9.90625 -11.671875 "/></g></g></g><g fill="rgb(9.799194%, 41.958618%, 67.059326%)" fill-opacity="1"><g transform="translate(135.93864, 336.500047)"><g><path d="M 31.296875 0 L 31.296875 -12.640625 C 31.296875 -14.203125 31.078125 -15.375 30.640625 -16.15625 C 30.210938 -16.945312 29.535156 -17.34375 28.609375 -17.34375 C 27.378906 -17.34375 26.476562 -16.816406 25.90625 -15.765625 C 25.332031 -14.710938 25.046875 -13.066406 25.046875 -10.828125 L 25.046875 0 L 17 0 L 17 -12.640625 C 17 -14.203125 16.789062 -15.375 16.375 -16.15625 C 15.96875 -16.945312 15.304688 -17.34375 14.390625 -17.34375 C 13.140625 -17.34375 12.222656 -16.78125 11.640625 -15.65625 C 11.066406 -14.539062 10.78125 -12.710938 10.78125 -10.171875 L 10.78125 0 L 2.765625 0 L 2.765625 -23.234375 L 8.8125 -23.234375 L 9.828125 -20.359375 L 10.296875 -20.359375 C 10.910156 -21.429688 11.800781 -22.242188 12.96875 -22.796875 C 14.132812 -23.359375 15.460938 -23.640625 16.953125 -23.640625 C 20.304688 -23.640625 22.660156 -22.625 24.015625 -20.59375 L 24.65625 -20.59375 C 25.3125 -21.550781 26.222656 -22.296875 27.390625 -22.828125 C 28.554688 -23.367188 29.84375 -23.640625 31.25 -23.640625 C 34 -23.640625 36.03125 -22.9375 37.34375 -21.53125 C 38.65625 -20.125 39.3125 -17.984375 39.3125 -15.109375 L 39.3125 0 Z M 31.296875 0 "/></g></g></g><g fill="rgb(9.799194%, 41.958618%, 67.059326%)" fill-opacity="1"><g transform="translate(177.926919, 336.500047)"><g><path d="M 13.984375 0.40625 C 10.117188 0.40625 7.113281 -0.617188 4.96875 -2.671875 C 2.832031 -4.734375 1.765625 -7.664062 1.765625 -11.46875 C 1.765625 -15.382812 2.753906 -18.390625 4.734375 -20.484375 C 6.722656 -22.585938 9.554688 -23.640625 13.234375 -23.640625 C 16.734375 -23.640625 19.4375 -22.726562 21.34375 -20.90625 C 23.25 -19.082031 24.203125 -16.453125 24.203125 -13.015625 L 24.203125 -9.453125 L 9.859375 -9.453125 C 9.921875 -8.148438 10.398438 -7.128906 11.296875 -6.390625 C 12.191406 -5.660156 13.410156 -5.296875 14.953125 -5.296875 C 16.359375 -5.296875 17.648438 -5.425781 18.828125 -5.6875 C 20.015625 -5.957031 21.300781 -6.414062 22.6875 -7.0625 L 22.6875 -1.296875 C 21.425781 -0.648438 20.125 -0.207031 18.78125 0.03125 C 17.445312 0.28125 15.847656 0.40625 13.984375 0.40625 Z M 13.515625 -18.1875 C 12.566406 -18.1875 11.773438 -17.890625 11.140625 -17.296875 C 10.503906 -16.703125 10.132812 -15.769531 10.03125 -14.5 L 16.921875 -14.5 C 16.890625 -15.625 16.566406 -16.519531 15.953125 -17.1875 C 15.347656 -17.851562 14.535156 -18.1875 13.515625 -18.1875 Z M 13.515625 -18.1875 "/></g></g></g><g fill="rgb(9.799194%, 41.958618%, 67.059326%)" fill-opacity="1"><g transform="translate(203.882564, 336.500047)"><g><path d="M 11.34375 -10.90625 L 11.34375 0 L 3.234375 0 L 3.234375 -29.984375 L 13.0625 -29.984375 C 21.207031 -29.984375 25.28125 -27.03125 25.28125 -21.125 C 25.28125 -17.65625 23.585938 -14.96875 20.203125 -13.0625 L 28.9375 0 L 19.75 0 L 13.390625 -10.90625 Z M 11.34375 -17 L 12.859375 -17 C 15.691406 -17 17.109375 -18.25 17.109375 -20.75 C 17.109375 -22.8125 15.71875 -23.84375 12.9375 -23.84375 L 11.34375 -23.84375 Z M 11.34375 -17 "/></g></g></g><g fill="rgb(9.799194%, 41.958618%, 67.059326%)" fill-opacity="1"><g transform="translate(232.298459, 336.500047)"><g><path d="M 13.984375 0.40625 C 10.117188 0.40625 7.113281 -0.617188 4.96875 -2.671875 C 2.832031 -4.734375 1.765625 -7.664062 1.765625 -11.46875 C 1.765625 -15.382812 2.753906 -18.390625 4.734375 -20.484375 C 6.722656 -22.585938 9.554688 -23.640625 13.234375 -23.640625 C 16.734375 -23.640625 19.4375 -22.726562 21.34375 -20.90625 C 23.25 -19.082031 24.203125 -16.453125 24.203125 -13.015625 L 24.203125 -9.453125 L 9.859375 -9.453125 C 9.921875 -8.148438 10.398438 -7.128906 11.296875 -6.390625 C 12.191406 -5.660156 13.410156 -5.296875 14.953125 -5.296875 C 16.359375 -5.296875 17.648438 -5.425781 18.828125 -5.6875 C 20.015625 -5.957031 21.300781 -6.414062 22.6875 -7.0625 L 22.6875 -1.296875 C 21.425781 -0.648438 20.125 -0.207031 18.78125 0.03125 C 17.445312 0.28125 15.847656 0.40625 13.984375 0.40625 Z M 13.515625 -18.1875 C 12.566406 -18.1875 11.773438 -17.890625 11.140625 -17.296875 C 10.503906 -16.703125 10.132812 -15.769531 10.03125 -14.5 L 16.921875 -14.5 C 16.890625 -15.625 16.566406 -16.519531 15.953125 -17.1875 C 15.347656 -17.851562 14.535156 -18.1875 13.515625 -18.1875 Z M 13.515625 -18.1875 "/></g></g></g><g fill="rgb(9.799194%, 41.958618%, 67.059326%)" fill-opacity="1"><g transform="translate(258.254104, 336.500047)"><g><path d="M 17.921875 0 L 16.390625 -3.078125 L 16.21875 -3.078125 C 15.144531 -1.734375 14.046875 -0.816406 12.921875 -0.328125 C 11.796875 0.160156 10.347656 0.40625 8.578125 0.40625 C 6.390625 0.40625 4.664062 -0.25 3.40625 -1.5625 C 2.144531 -2.875 1.515625 -4.71875 1.515625 -7.09375 C 1.515625 -9.570312 2.375 -11.414062 4.09375 -12.625 C 5.820312 -13.832031 8.320312 -14.507812 11.59375 -14.65625 L 15.46875 -14.78125 L 15.46875 -15.109375 C 15.46875 -17.023438 14.523438 -17.984375 12.640625 -17.984375 C 10.941406 -17.984375 8.785156 -17.410156 6.171875 -16.265625 L 3.859375 -21.546875 C 6.566406 -22.941406 9.984375 -23.640625 14.109375 -23.640625 C 17.085938 -23.640625 19.394531 -22.898438 21.03125 -21.421875 C 22.664062 -19.953125 23.484375 -17.890625 23.484375 -15.234375 L 23.484375 0 Z M 11.984375 -5.25 C 12.953125 -5.25 13.78125 -5.554688 14.46875 -6.171875 C 15.15625 -6.785156 15.5 -7.585938 15.5 -8.578125 L 15.5 -10.375 L 13.65625 -10.296875 C 11.019531 -10.203125 9.703125 -9.234375 9.703125 -7.390625 C 9.703125 -5.960938 10.460938 -5.25 11.984375 -5.25 Z M 11.984375 -5.25 "/></g></g></g><g fill="rgb(9.799194%, 41.958618%, 67.059326%)" fill-opacity="1"><g transform="translate(284.414781, 336.500047)"><g><path d="M 10.78125 0 L 2.765625 0 L 2.765625 -31.90625 L 10.78125 -31.90625 Z M 10.78125 0 "/></g></g></g><g fill="rgb(9.799194%, 41.958618%, 67.059326%)" fill-opacity="1"><g transform="translate(70.875, 360.900034)"><g><path d="M 7.4375 -7.125 C 7.4375 -6.15625 7.109375 -5.410156 6.453125 -4.890625 C 5.796875 -4.378906 4.863281 -4.125 3.65625 -4.125 L 2.109375 -4.125 L 2.109375 0 L 1.421875 0 L 1.421875 -10 L 3.859375 -10 C 6.242188 -10 7.4375 -9.039062 7.4375 -7.125 Z M 2.109375 -4.734375 L 3.484375 -4.734375 C 4.609375 -4.734375 5.421875 -4.914062 5.921875 -5.28125 C 6.421875 -5.65625 6.671875 -6.257812 6.671875 -7.09375 C 6.671875 -7.863281 6.429688 -8.429688 5.953125 -8.796875 C 5.484375 -9.171875 4.753906 -9.359375 3.765625 -9.359375 L 2.109375 -9.359375 Z M 2.109375 -4.734375 "/></g></g></g><g fill="rgb(9.799194%, 41.958618%, 67.059326%)" fill-opacity="1"><g transform="translate(79.059882, 360.900034)"><g><path d="M 6.421875 0 L 6.421875 -4.8125 C 6.421875 -5.5625 6.265625 -6.101562 5.953125 -6.4375 C 5.640625 -6.78125 5.148438 -6.953125 4.484375 -6.953125 C 3.597656 -6.953125 2.945312 -6.726562 2.53125 -6.28125 C 2.125 -5.832031 1.921875 -5.109375 1.921875 -4.109375 L 1.921875 0 L 1.25 0 L 1.25 -10.640625 L 1.921875 -10.640625 L 1.921875 -7.25 L 1.890625 -6.296875 L 1.9375 -6.296875 C 2.21875 -6.742188 2.566406 -7.066406 2.984375 -7.265625 C 3.410156 -7.472656 3.9375 -7.578125 4.5625 -7.578125 C 6.25 -7.578125 7.09375 -6.671875 7.09375 -4.859375 L 7.09375 0 Z M 6.421875 0 "/></g></g></g><g fill="rgb(9.799194%, 41.958618%, 67.059326%)" fill-opacity="1"><g transform="translate(87.313086, 360.900034)"><g><path d="M 5.75 0 L 5.578125 -1.171875 L 5.53125 -1.171875 C 5.15625 -0.691406 4.769531 -0.351562 4.375 -0.15625 C 3.976562 0.0390625 3.515625 0.140625 2.984375 0.140625 C 2.253906 0.140625 1.6875 -0.046875 1.28125 -0.421875 C 0.875 -0.796875 0.671875 -1.3125 0.671875 -1.96875 C 0.671875 -2.695312 0.972656 -3.257812 1.578125 -3.65625 C 2.179688 -4.0625 3.054688 -4.273438 4.203125 -4.296875 L 5.609375 -4.34375 L 5.609375 -4.828125 C 5.609375 -5.535156 5.460938 -6.066406 5.171875 -6.421875 C 4.890625 -6.785156 4.429688 -6.96875 3.796875 -6.96875 C 3.109375 -6.96875 2.394531 -6.78125 1.65625 -6.40625 L 1.40625 -6.984375 C 2.21875 -7.367188 3.023438 -7.5625 3.828125 -7.5625 C 4.640625 -7.5625 5.242188 -7.347656 5.640625 -6.921875 C 6.046875 -6.503906 6.25 -5.84375 6.25 -4.9375 L 6.25 0 Z M 3.015625 -0.484375 C 3.816406 -0.484375 4.441406 -0.707031 4.890625 -1.15625 C 5.347656 -1.613281 5.578125 -2.242188 5.578125 -3.046875 L 5.578125 -3.78125 L 4.28125 -3.71875 C 3.238281 -3.675781 2.492188 -3.515625 2.046875 -3.234375 C 1.609375 -2.960938 1.390625 -2.535156 1.390625 -1.953125 C 1.390625 -1.484375 1.53125 -1.117188 1.8125 -0.859375 C 2.101562 -0.609375 2.503906 -0.484375 3.015625 -0.484375 Z M 4.234375 -10.375 C 4.691406 -9.757812 5.210938 -9.164062 5.796875 -8.59375 L 5.796875 -8.484375 L 5.34375 -8.484375 C 4.757812 -8.910156 4.265625 -9.3125 3.859375 -9.6875 C 3.453125 -9.3125 2.957031 -8.910156 2.375 -8.484375 L 1.90625 -8.484375 L 1.90625 -8.59375 C 2.550781 -9.207031 3.085938 -9.800781 3.515625 -10.375 Z M 2.484375 -9.8125 L 2.03125 -9.8125 C 1.5 -10.269531 1.054688 -10.753906 0.703125 -11.265625 L 0.703125 -11.375 L 1.5625 -11.375 C 1.769531 -10.976562 1.925781 -10.703125 2.03125 -10.546875 C 2.132812 -10.398438 2.285156 -10.191406 2.484375 -9.921875 Z M 2.484375 -9.8125 "/></g></g></g><g fill="rgb(9.799194%, 41.958618%, 67.059326%)" fill-opacity="1"><g transform="translate(94.725939, 360.900034)"><g><path d="M 6.421875 0 L 6.421875 -4.8125 C 6.421875 -5.5625 6.265625 -6.101562 5.953125 -6.4375 C 5.640625 -6.78125 5.148438 -6.953125 4.484375 -6.953125 C 3.597656 -6.953125 2.945312 -6.726562 2.53125 -6.28125 C 2.125 -5.832031 1.921875 -5.109375 1.921875 -4.109375 L 1.921875 0 L 1.25 0 L 1.25 -7.4375 L 1.8125 -7.4375 L 1.953125 -6.40625 L 1.984375 -6.40625 C 2.472656 -7.1875 3.332031 -7.578125 4.5625 -7.578125 C 6.25 -7.578125 7.09375 -6.671875 7.09375 -4.859375 L 7.09375 0 Z M 6.421875 0 "/></g></g></g><g fill="rgb(9.799194%, 41.958618%, 67.059326%)" fill-opacity="1"><g transform="translate(102.979143, 360.900034)"><g/></g></g><g fill="rgb(9.799194%, 41.958618%, 67.059326%)" fill-opacity="1"><g transform="translate(106.613832, 360.900034)"><g><path d="M 10.53125 0 L 10.53125 -4.875 C 10.53125 -5.601562 10.390625 -6.128906 10.109375 -6.453125 C 9.828125 -6.785156 9.394531 -6.953125 8.8125 -6.953125 C 8.039062 -6.953125 7.472656 -6.742188 7.109375 -6.328125 C 6.742188 -5.910156 6.5625 -5.253906 6.5625 -4.359375 L 6.5625 0 L 5.875 0 L 5.875 -5.078125 C 5.875 -6.328125 5.300781 -6.953125 4.15625 -6.953125 C 3.375 -6.953125 2.804688 -6.722656 2.453125 -6.265625 C 2.097656 -5.816406 1.921875 -5.097656 1.921875 -4.109375 L 1.921875 0 L 1.25 0 L 1.25 -7.4375 L 1.8125 -7.4375 L 1.953125 -6.40625 L 1.984375 -6.40625 C 2.191406 -6.78125 2.484375 -7.066406 2.859375 -7.265625 C 3.242188 -7.472656 3.660156 -7.578125 4.109375 -7.578125 C 5.285156 -7.578125 6.039062 -7.132812 6.375 -6.25 L 6.40625 -6.25 C 6.644531 -6.675781 6.96875 -7.003906 7.375 -7.234375 C 7.78125 -7.460938 8.242188 -7.578125 8.765625 -7.578125 C 9.578125 -7.578125 10.1875 -7.359375 10.59375 -6.921875 C 11 -6.492188 11.203125 -5.804688 11.203125 -4.859375 L 11.203125 0 Z M 10.53125 0 "/></g></g></g><g fill="rgb(9.799194%, 41.958618%, 67.059326%)" fill-opacity="1"><g transform="translate(118.966309, 360.900034)"><g><path d="M 4.25 0.140625 C 3.164062 0.140625 2.320312 -0.191406 1.71875 -0.859375 C 1.113281 -1.523438 0.8125 -2.457031 0.8125 -3.65625 C 0.8125 -4.84375 1.101562 -5.789062 1.6875 -6.5 C 2.269531 -7.21875 3.054688 -7.578125 4.046875 -7.578125 C 4.921875 -7.578125 5.609375 -7.269531 6.109375 -6.65625 C 6.617188 -6.050781 6.875 -5.222656 6.875 -4.171875 L 6.875 -3.625 L 1.53125 -3.625 C 1.53125 -2.601562 1.765625 -1.820312 2.234375 -1.28125 C 2.703125 -0.75 3.375 -0.484375 4.25 -0.484375 C 4.664062 -0.484375 5.035156 -0.507812 5.359375 -0.5625 C 5.679688 -0.625 6.085938 -0.753906 6.578125 -0.953125 L 6.578125 -0.328125 C 6.160156 -0.148438 5.773438 -0.03125 5.421875 0.03125 C 5.066406 0.101562 4.675781 0.140625 4.25 0.140625 Z M 4.046875 -6.96875 C 3.328125 -6.96875 2.75 -6.734375 2.3125 -6.265625 C 1.882812 -5.796875 1.632812 -5.113281 1.5625 -4.21875 L 6.15625 -4.21875 C 6.15625 -5.082031 5.96875 -5.753906 5.59375 -6.234375 C 5.21875 -6.722656 4.703125 -6.96875 4.046875 -6.96875 Z M 4.234375 -10.375 C 4.691406 -9.757812 5.210938 -9.164062 5.796875 -8.59375 L 5.796875 -8.484375 L 5.34375 -8.484375 C 4.757812 -8.910156 4.265625 -9.3125 3.859375 -9.6875 C 3.453125 -9.3125 2.957031 -8.910156 2.375 -8.484375 L 1.90625 -8.484375 L 1.90625 -8.59375 C 2.550781 -9.207031 3.085938 -9.800781 3.515625 -10.375 Z M 2.484375 -9.8125 L 2.03125 -9.8125 C 1.5 -10.269531 1.054688 -10.753906 0.703125 -11.265625 L 0.703125 -11.375 L 1.5625 -11.375 C 1.769531 -10.976562 1.925781 -10.703125 2.03125 -10.546875 C 2.132812 -10.398438 2.285156 -10.191406 2.484375 -9.921875 Z M 2.484375 -9.8125 "/></g></g></g><g fill="rgb(9.799194%, 41.958618%, 67.059326%)" fill-opacity="1"><g transform="translate(126.645615, 360.900034)"><g><path d="M 10.53125 0 L 10.53125 -4.875 C 10.53125 -5.601562 10.390625 -6.128906 10.109375 -6.453125 C 9.828125 -6.785156 9.394531 -6.953125 8.8125 -6.953125 C 8.039062 -6.953125 7.472656 -6.742188 7.109375 -6.328125 C 6.742188 -5.910156 6.5625 -5.253906 6.5625 -4.359375 L 6.5625 0 L 5.875 0 L 5.875 -5.078125 C 5.875 -6.328125 5.300781 -6.953125 4.15625 -6.953125 C 3.375 -6.953125 2.804688 -6.722656 2.453125 -6.265625 C 2.097656 -5.816406 1.921875 -5.097656 1.921875 -4.109375 L 1.921875 0 L 1.25 0 L 1.25 -7.4375 L 1.8125 -7.4375 L 1.953125 -6.40625 L 1.984375 -6.40625 C 2.191406 -6.78125 2.484375 -7.066406 2.859375 -7.265625 C 3.242188 -7.472656 3.660156 -7.578125 4.109375 -7.578125 C 5.285156 -7.578125 6.039062 -7.132812 6.375 -6.25 L 6.40625 -6.25 C 6.644531 -6.675781 6.96875 -7.003906 7.375 -7.234375 C 7.78125 -7.460938 8.242188 -7.578125 8.765625 -7.578125 C 9.578125 -7.578125 10.1875 -7.359375 10.59375 -6.921875 C 11 -6.492188 11.203125 -5.804688 11.203125 -4.859375 L 11.203125 0 Z M 10.53125 0 "/></g></g></g><g fill="rgb(9.799194%, 41.958618%, 67.059326%)" fill-opacity="1"><g transform="translate(142.632781, 360.900034)"><g><path d="M 3.890625 0.140625 C 2.910156 0.140625 2.148438 -0.179688 1.609375 -0.828125 C 1.078125 -1.484375 0.8125 -2.421875 0.8125 -3.640625 C 0.8125 -4.890625 1.078125 -5.859375 1.609375 -6.546875 C 2.148438 -7.234375 2.925781 -7.578125 3.9375 -7.578125 C 5.007812 -7.578125 5.8125 -7.179688 6.34375 -6.390625 L 6.390625 -6.390625 L 6.515625 -7.4375 L 7.078125 -7.4375 L 7.078125 3.359375 L 6.40625 3.359375 L 6.40625 0.53125 C 6.40625 -0.0195312 6.421875 -0.582031 6.453125 -1.15625 L 6.40625 -1.15625 C 5.875 -0.289062 5.035156 0.140625 3.890625 0.140625 Z M 3.90625 -0.46875 C 4.800781 -0.46875 5.441406 -0.710938 5.828125 -1.203125 C 6.210938 -1.703125 6.40625 -2.539062 6.40625 -3.71875 L 6.40625 -3.796875 C 6.40625 -4.910156 6.210938 -5.710938 5.828125 -6.203125 C 5.441406 -6.703125 4.828125 -6.953125 3.984375 -6.953125 C 3.179688 -6.953125 2.570312 -6.671875 2.15625 -6.109375 C 1.738281 -5.546875 1.53125 -4.71875 1.53125 -3.625 C 1.53125 -2.582031 1.734375 -1.796875 2.140625 -1.265625 C 2.546875 -0.734375 3.132812 -0.46875 3.90625 -0.46875 Z M 3.90625 -0.46875 "/></g></g></g><g fill="rgb(9.799194%, 41.958618%, 67.059326%)" fill-opacity="1"><g transform="translate(150.961138, 360.900034)"><g><path d="M 1.828125 -7.4375 L 1.828125 -2.625 C 1.828125 -1.875 1.984375 -1.328125 2.296875 -0.984375 C 2.617188 -0.648438 3.109375 -0.484375 3.765625 -0.484375 C 4.648438 -0.484375 5.300781 -0.703125 5.71875 -1.140625 C 6.132812 -1.585938 6.34375 -2.316406 6.34375 -3.328125 L 6.34375 -7.4375 L 7.015625 -7.4375 L 7.015625 0 L 6.4375 0 L 6.3125 -1.03125 L 6.28125 -1.03125 C 5.789062 -0.25 4.929688 0.140625 3.703125 0.140625 C 2.003906 0.140625 1.15625 -0.765625 1.15625 -2.578125 L 1.15625 -7.4375 Z M 1.828125 -7.4375 "/></g></g></g><g fill="rgb(9.799194%, 41.958618%, 67.059326%)" fill-opacity="1"><g transform="translate(159.214342, 360.900034)"><g><path d="M 5.75 0 L 5.578125 -1.171875 L 5.53125 -1.171875 C 5.15625 -0.691406 4.769531 -0.351562 4.375 -0.15625 C 3.976562 0.0390625 3.515625 0.140625 2.984375 0.140625 C 2.253906 0.140625 1.6875 -0.046875 1.28125 -0.421875 C 0.875 -0.796875 0.671875 -1.3125 0.671875 -1.96875 C 0.671875 -2.695312 0.972656 -3.257812 1.578125 -3.65625 C 2.179688 -4.0625 3.054688 -4.273438 4.203125 -4.296875 L 5.609375 -4.34375 L 5.609375 -4.828125 C 5.609375 -5.535156 5.460938 -6.066406 5.171875 -6.421875 C 4.890625 -6.785156 4.429688 -6.96875 3.796875 -6.96875 C 3.109375 -6.96875 2.394531 -6.78125 1.65625 -6.40625 L 1.40625 -6.984375 C 2.21875 -7.367188 3.023438 -7.5625 3.828125 -7.5625 C 4.640625 -7.5625 5.242188 -7.347656 5.640625 -6.921875 C 6.046875 -6.503906 6.25 -5.84375 6.25 -4.9375 L 6.25 0 Z M 3.015625 -0.484375 C 3.816406 -0.484375 4.441406 -0.707031 4.890625 -1.15625 C 5.347656 -1.613281 5.578125 -2.242188 5.578125 -3.046875 L 5.578125 -3.78125 L 4.28125 -3.71875 C 3.238281 -3.675781 2.492188 -3.515625 2.046875 -3.234375 C 1.609375 -2.960938 1.390625 -2.535156 1.390625 -1.953125 C 1.390625 -1.484375 1.53125 -1.117188 1.8125 -0.859375 C 2.101562 -0.609375 2.503906 -0.484375 3.015625 -0.484375 Z M 5.1875 -10.28125 C 5.1875 -9.644531 4.800781 -9.242188 4.03125 -9.078125 L 3.96875 -8.265625 L 3.421875 -8.265625 L 3.34375 -9.46875 C 3.75 -9.539062 4.046875 -9.640625 4.234375 -9.765625 C 4.421875 -9.890625 4.515625 -10.054688 4.515625 -10.265625 C 4.515625 -10.484375 4.4375 -10.644531 4.28125 -10.75 C 4.132812 -10.863281 3.878906 -10.921875 3.515625 -10.921875 C 3.296875 -10.921875 3.085938 -10.898438 2.890625 -10.859375 L 2.890625 -11.390625 C 3.117188 -11.453125 3.363281 -11.484375 3.625 -11.484375 C 4.113281 -11.484375 4.492188 -11.378906 4.765625 -11.171875 C 5.046875 -10.960938 5.1875 -10.664062 5.1875 -10.28125 Z M 5.1875 -10.28125 "/></g></g></g><g fill="rgb(9.799194%, 41.958618%, 67.059326%)" fill-opacity="1"><g transform="translate(166.627195, 360.900034)"><g><path d="M 6.421875 0 L 6.421875 -4.8125 C 6.421875 -5.5625 6.265625 -6.101562 5.953125 -6.4375 C 5.640625 -6.78125 5.148438 -6.953125 4.484375 -6.953125 C 3.597656 -6.953125 2.945312 -6.726562 2.53125 -6.28125 C 2.125 -5.832031 1.921875 -5.109375 1.921875 -4.109375 L 1.921875 0 L 1.25 0 L 1.25 -7.4375 L 1.8125 -7.4375 L 1.953125 -6.40625 L 1.984375 -6.40625 C 2.472656 -7.1875 3.332031 -7.578125 4.5625 -7.578125 C 6.25 -7.578125 7.09375 -6.671875 7.09375 -4.859375 L 7.09375 0 Z M 6.421875 0 "/></g></g></g><g fill="rgb(9.799194%, 41.958618%, 67.059326%)" fill-opacity="1"><g transform="translate(174.880398, 360.900034)"><g/></g></g><g fill="rgb(9.799194%, 41.958618%, 67.059326%)" fill-opacity="1"><g transform="translate(178.515088, 360.900034)"><g><path d="M 1.921875 0 L 1.25 0 L 1.25 -10.640625 L 1.921875 -10.640625 Z M 1.921875 0 "/></g></g></g><g fill="rgb(9.799194%, 41.958618%, 67.059326%)" fill-opacity="1"><g transform="translate(181.67836, 360.900034)"><g><path d="M 0 -7.4375 L 0.703125 -7.4375 L 2.265625 -3.265625 C 2.742188 -1.984375 3.046875 -1.117188 3.171875 -0.671875 L 3.21875 -0.671875 C 3.40625 -1.253906 3.71875 -2.128906 4.15625 -3.296875 L 5.734375 -7.4375 L 6.421875 -7.4375 L 3.09375 1.203125 C 2.820312 1.898438 2.59375 2.375 2.40625 2.625 C 2.226562 2.875 2.019531 3.054688 1.78125 3.171875 C 1.539062 3.296875 1.242188 3.359375 0.890625 3.359375 C 0.628906 3.359375 0.34375 3.3125 0.03125 3.21875 L 0.03125 2.625 C 0.289062 2.695312 0.570312 2.734375 0.875 2.734375 C 1.113281 2.734375 1.320312 2.675781 1.5 2.5625 C 1.675781 2.457031 1.832031 2.289062 1.96875 2.0625 C 2.113281 1.832031 2.28125 1.46875 2.46875 0.96875 C 2.664062 0.46875 2.789062 0.144531 2.84375 0 Z M 2.6875 -8.59375 C 3.019531 -8.957031 3.347656 -9.347656 3.671875 -9.765625 C 3.992188 -10.179688 4.21875 -10.5 4.34375 -10.71875 L 5.3125 -10.71875 L 5.3125 -10.609375 C 5.144531 -10.367188 4.863281 -10.050781 4.46875 -9.65625 C 4.070312 -9.269531 3.640625 -8.878906 3.171875 -8.484375 L 2.6875 -8.484375 Z M 2.6875 -8.59375 "/></g></g></g><g fill="rgb(9.799194%, 41.958618%, 67.059326%)" fill-opacity="1"><g transform="translate(188.100555, 360.900034)"><g/></g></g><g fill="rgb(9.799194%, 41.958618%, 67.059326%)" fill-opacity="1"><g transform="translate(191.735244, 360.900034)"><g><path d="M 1.421875 -10 L 4.15625 -10 C 5.394531 -10 6.300781 -9.785156 6.875 -9.359375 C 7.457031 -8.941406 7.75 -8.3125 7.75 -7.46875 C 7.75 -6.882812 7.570312 -6.398438 7.21875 -6.015625 C 6.863281 -5.628906 6.347656 -5.382812 5.671875 -5.28125 L 5.671875 -5.234375 C 6.460938 -5.117188 7.046875 -4.867188 7.421875 -4.484375 C 7.796875 -4.097656 7.984375 -3.5625 7.984375 -2.875 C 7.984375 -1.945312 7.675781 -1.234375 7.0625 -0.734375 C 6.457031 -0.242188 5.597656 0 4.484375 0 L 1.421875 0 Z M 2.109375 -5.546875 L 4.3125 -5.546875 C 5.25 -5.546875 5.929688 -5.703125 6.359375 -6.015625 C 6.785156 -6.328125 7 -6.816406 7 -7.484375 C 7 -8.148438 6.757812 -8.628906 6.28125 -8.921875 C 5.800781 -9.222656 5.082031 -9.375 4.125 -9.375 L 2.109375 -9.375 Z M 2.109375 -4.921875 L 2.109375 -0.609375 L 4.46875 -0.609375 C 6.3125 -0.609375 7.234375 -1.363281 7.234375 -2.875 C 7.234375 -4.238281 6.257812 -4.921875 4.3125 -4.921875 Z M 2.109375 -4.921875 "/></g></g></g><g fill="rgb(9.799194%, 41.958618%, 67.059326%)" fill-opacity="1"><g transform="translate(200.507689, 360.900034)"><g><path d="M 5.75 0 L 5.578125 -1.171875 L 5.53125 -1.171875 C 5.15625 -0.691406 4.769531 -0.351562 4.375 -0.15625 C 3.976562 0.0390625 3.515625 0.140625 2.984375 0.140625 C 2.253906 0.140625 1.6875 -0.046875 1.28125 -0.421875 C 0.875 -0.796875 0.671875 -1.3125 0.671875 -1.96875 C 0.671875 -2.695312 0.972656 -3.257812 1.578125 -3.65625 C 2.179688 -4.0625 3.054688 -4.273438 4.203125 -4.296875 L 5.609375 -4.34375 L 5.609375 -4.828125 C 5.609375 -5.535156 5.460938 -6.066406 5.171875 -6.421875 C 4.890625 -6.785156 4.429688 -6.96875 3.796875 -6.96875 C 3.109375 -6.96875 2.394531 -6.78125 1.65625 -6.40625 L 1.40625 -6.984375 C 2.21875 -7.367188 3.023438 -7.5625 3.828125 -7.5625 C 4.640625 -7.5625 5.242188 -7.347656 5.640625 -6.921875 C 6.046875 -6.503906 6.25 -5.84375 6.25 -4.9375 L 6.25 0 Z M 3.015625 -0.484375 C 3.816406 -0.484375 4.441406 -0.707031 4.890625 -1.15625 C 5.347656 -1.613281 5.578125 -2.242188 5.578125 -3.046875 L 5.578125 -3.78125 L 4.28125 -3.71875 C 3.238281 -3.675781 2.492188 -3.515625 2.046875 -3.234375 C 1.609375 -2.960938 1.390625 -2.535156 1.390625 -1.953125 C 1.390625 -1.484375 1.53125 -1.117188 1.8125 -0.859375 C 2.101562 -0.609375 2.503906 -0.484375 3.015625 -0.484375 Z M 4.234375 -10.375 C 4.691406 -9.757812 5.210938 -9.164062 5.796875 -8.59375 L 5.796875 -8.484375 L 5.34375 -8.484375 C 4.757812 -8.910156 4.265625 -9.3125 3.859375 -9.6875 C 3.453125 -9.3125 2.957031 -8.910156 2.375 -8.484375 L 1.90625 -8.484375 L 1.90625 -8.59375 C 2.550781 -9.207031 3.085938 -9.800781 3.515625 -10.375 Z M 5.265625 -9.921875 C 5.453125 -10.171875 5.597656 -10.375 5.703125 -10.53125 C 5.804688 -10.695312 5.96875 -10.976562 6.1875 -11.375 L 7.03125 -11.375 L 7.03125 -11.265625 C 6.625 -10.710938 6.1875 -10.226562 5.71875 -9.8125 L 5.265625 -9.8125 Z M 5.265625 -9.921875 "/></g></g></g><g fill="rgb(9.799194%, 41.958618%, 67.059326%)" fill-opacity="1"><g transform="translate(207.920542, 360.900034)"><g><path d="M 3.203125 -0.46875 C 3.628906 -0.46875 4.003906 -0.503906 4.328125 -0.578125 L 4.328125 -0.03125 C 3.992188 0.0820312 3.613281 0.140625 3.1875 0.140625 C 2.53125 0.140625 2.046875 -0.0351562 1.734375 -0.390625 C 1.421875 -0.742188 1.265625 -1.296875 1.265625 -2.046875 L 1.265625 -6.84375 L 0.171875 -6.84375 L 0.171875 -7.234375 L 1.265625 -7.546875 L 1.609375 -9.234375 L 1.96875 -9.234375 L 1.96875 -7.4375 L 4.140625 -7.4375 L 4.140625 -6.84375 L 1.96875 -6.84375 L 1.96875 -2.140625 C 1.96875 -1.566406 2.066406 -1.144531 2.265625 -0.875 C 2.460938 -0.601562 2.773438 -0.46875 3.203125 -0.46875 Z M 3.203125 -0.46875 "/></g></g></g><g fill="rgb(9.799194%, 41.958618%, 67.059326%)" fill-opacity="1"><g transform="translate(212.607378, 360.900034)"><g/></g></g><g fill="rgb(9.799194%, 41.958618%, 67.059326%)" fill-opacity="1"><g transform="translate(216.242067, 360.900034)"><g><path d="M 3.96875 -7.578125 C 4.5 -7.578125 4.960938 -7.476562 5.359375 -7.28125 C 5.753906 -7.082031 6.101562 -6.75 6.40625 -6.28125 L 6.453125 -6.28125 C 6.421875 -6.851562 6.40625 -7.414062 6.40625 -7.96875 L 6.40625 -8.703125 L 3.171875 -8.703125 L 3.171875 -9.25 L 6.40625 -9.25 L 6.40625 -10.640625 L 7.078125 -10.640625 L 7.078125 -9.25 L 8.15625 -9.25 L 8.15625 -8.703125 L 7.078125 -8.703125 L 7.078125 0 L 6.640625 0 L 6.46875 -1.140625 L 6.40625 -1.140625 C 5.84375 -0.285156 5.035156 0.140625 3.984375 0.140625 C 2.953125 0.140625 2.164062 -0.175781 1.625 -0.8125 C 1.082031 -1.457031 0.8125 -2.390625 0.8125 -3.609375 C 0.8125 -4.890625 1.078125 -5.867188 1.609375 -6.546875 C 2.148438 -7.234375 2.9375 -7.578125 3.96875 -7.578125 Z M 3.96875 -6.953125 C 3.15625 -6.953125 2.546875 -6.664062 2.140625 -6.09375 C 1.734375 -5.53125 1.53125 -4.707031 1.53125 -3.625 C 1.53125 -1.519531 2.347656 -0.46875 3.984375 -0.46875 C 4.816406 -0.46875 5.425781 -0.707031 5.8125 -1.1875 C 6.207031 -1.675781 6.40625 -2.484375 6.40625 -3.609375 L 6.40625 -3.71875 C 6.40625 -4.875 6.210938 -5.703125 5.828125 -6.203125 C 5.441406 -6.703125 4.820312 -6.953125 3.96875 -6.953125 Z M 3.96875 -6.953125 "/></g></g></g><g fill="rgb(9.799194%, 41.958618%, 67.059326%)" fill-opacity="1"><g transform="translate(224.570424, 360.900034)"><g><path d="M 7.390625 -3.71875 C 7.390625 -2.507812 7.09375 -1.5625 6.5 -0.875 C 5.914062 -0.195312 5.109375 0.140625 4.078125 0.140625 C 3.421875 0.140625 2.84375 -0.015625 2.34375 -0.328125 C 1.851562 -0.648438 1.472656 -1.101562 1.203125 -1.6875 C 0.941406 -2.28125 0.8125 -2.957031 0.8125 -3.71875 C 0.8125 -4.9375 1.101562 -5.882812 1.6875 -6.5625 C 2.28125 -7.238281 3.085938 -7.578125 4.109375 -7.578125 C 5.128906 -7.578125 5.929688 -7.234375 6.515625 -6.546875 C 7.097656 -5.859375 7.390625 -4.914062 7.390625 -3.71875 Z M 1.53125 -3.71875 C 1.53125 -2.695312 1.753906 -1.898438 2.203125 -1.328125 C 2.648438 -0.765625 3.285156 -0.484375 4.109375 -0.484375 C 4.921875 -0.484375 5.550781 -0.765625 6 -1.328125 C 6.445312 -1.898438 6.671875 -2.695312 6.671875 -3.71875 C 6.671875 -4.75 6.441406 -5.546875 5.984375 -6.109375 C 5.535156 -6.671875 4.90625 -6.953125 4.09375 -6.953125 C 3.269531 -6.953125 2.632812 -6.671875 2.1875 -6.109375 C 1.75 -5.546875 1.53125 -4.75 1.53125 -3.71875 Z M 3.46875 1.546875 C 3.46875 1.109375 3.613281 0.890625 3.90625 0.890625 C 4.050781 0.890625 4.160156 0.945312 4.234375 1.0625 C 4.316406 1.175781 4.359375 1.335938 4.359375 1.546875 C 4.359375 1.753906 4.316406 1.914062 4.234375 2.03125 C 4.160156 2.15625 4.050781 2.21875 3.90625 2.21875 C 3.613281 2.21875 3.46875 1.992188 3.46875 1.546875 Z M 2.046875 -8.59375 C 2.328125 -8.894531 2.625 -9.25 2.9375 -9.65625 C 3.257812 -10.0625 3.515625 -10.414062 3.703125 -10.71875 L 4.375 -10.71875 C 4.675781 -10.175781 5.222656 -9.46875 6.015625 -8.59375 L 6.015625 -8.484375 L 5.546875 -8.484375 C 4.984375 -8.941406 4.476562 -9.414062 4.03125 -9.90625 C 3.539062 -9.382812 3.035156 -8.910156 2.515625 -8.484375 L 2.046875 -8.484375 Z M 2.046875 -8.59375 "/></g></g></g><g fill="rgb(9.799194%, 41.958618%, 67.059326%)" fill-opacity="1"><g transform="translate(232.768971, 360.900034)"><g><path d="M 6.421875 0 L 6.421875 -4.8125 C 6.421875 -5.5625 6.265625 -6.101562 5.953125 -6.4375 C 5.640625 -6.78125 5.148438 -6.953125 4.484375 -6.953125 C 3.597656 -6.953125 2.945312 -6.726562 2.53125 -6.28125 C 2.125 -5.832031 1.921875 -5.109375 1.921875 -4.109375 L 1.921875 0 L 1.25 0 L 1.25 -7.4375 L 1.8125 -7.4375 L 1.953125 -6.40625 L 1.984375 -6.40625 C 2.472656 -7.1875 3.332031 -7.578125 4.5625 -7.578125 C 6.25 -7.578125 7.09375 -6.671875 7.09375 -4.859375 L 7.09375 0 Z M 6.421875 0 "/></g></g></g><g fill="rgb(9.799194%, 41.958618%, 67.059326%)" fill-opacity="1"><g transform="translate(241.022175, 360.900034)"><g><path d="M 7.046875 -7.4375 L 7.046875 -6.953125 L 5.5 -6.859375 C 5.914062 -6.347656 6.125 -5.789062 6.125 -5.1875 C 6.125 -4.46875 5.882812 -3.882812 5.40625 -3.4375 C 4.925781 -3 4.285156 -2.78125 3.484375 -2.78125 C 3.148438 -2.78125 2.914062 -2.789062 2.78125 -2.8125 C 2.507812 -2.675781 2.300781 -2.507812 2.15625 -2.3125 C 2.019531 -2.125 1.953125 -1.921875 1.953125 -1.703125 C 1.953125 -1.472656 2.039062 -1.300781 2.21875 -1.1875 C 2.394531 -1.082031 2.695312 -1.03125 3.125 -1.03125 L 4.421875 -1.03125 C 5.234375 -1.03125 5.851562 -0.863281 6.28125 -0.53125 C 6.707031 -0.207031 6.921875 0.269531 6.921875 0.90625 C 6.921875 1.6875 6.601562 2.289062 5.96875 2.71875 C 5.332031 3.144531 4.425781 3.359375 3.25 3.359375 C 2.3125 3.359375 1.585938 3.175781 1.078125 2.8125 C 0.566406 2.457031 0.3125 1.957031 0.3125 1.3125 C 0.3125 0.800781 0.46875 0.378906 0.78125 0.046875 C 1.101562 -0.285156 1.535156 -0.515625 2.078125 -0.640625 C 1.847656 -0.734375 1.664062 -0.867188 1.53125 -1.046875 C 1.394531 -1.222656 1.328125 -1.425781 1.328125 -1.65625 C 1.328125 -2.15625 1.644531 -2.59375 2.28125 -2.96875 C 1.851562 -3.144531 1.515625 -3.421875 1.265625 -3.796875 C 1.023438 -4.179688 0.90625 -4.617188 0.90625 -5.109375 C 0.90625 -5.859375 1.140625 -6.457031 1.609375 -6.90625 C 2.085938 -7.351562 2.726562 -7.578125 3.53125 -7.578125 C 4.019531 -7.578125 4.394531 -7.53125 4.65625 -7.4375 Z M 1.03125 1.265625 C 1.03125 2.285156 1.785156 2.796875 3.296875 2.796875 C 5.253906 2.796875 6.234375 2.171875 6.234375 0.921875 C 6.234375 0.472656 6.078125 0.148438 5.765625 -0.046875 C 5.460938 -0.242188 4.96875 -0.34375 4.28125 -0.34375 L 3.0625 -0.34375 C 1.707031 -0.34375 1.03125 0.191406 1.03125 1.265625 Z M 1.59375 -5.109375 C 1.59375 -4.535156 1.765625 -4.085938 2.109375 -3.765625 C 2.460938 -3.453125 2.929688 -3.296875 3.515625 -3.296875 C 4.128906 -3.296875 4.601562 -3.453125 4.9375 -3.765625 C 5.269531 -4.085938 5.4375 -4.546875 5.4375 -5.140625 C 5.4375 -5.773438 5.265625 -6.25 4.921875 -6.5625 C 4.585938 -6.882812 4.113281 -7.046875 3.5 -7.046875 C 2.90625 -7.046875 2.4375 -6.875 2.09375 -6.53125 C 1.757812 -6.1875 1.59375 -5.710938 1.59375 -5.109375 Z M 1.59375 -5.109375 "/></g></g></g><g fill="rgb(9.799194%, 41.958618%, 67.059326%)" fill-opacity="1"><g transform="translate(248.339378, 360.900034)"><g/></g></g><g fill="rgb(9.799194%, 41.958618%, 67.059326%)" fill-opacity="1"><g transform="translate(251.974067, 360.900034)"><g><path d="M 5.859375 -1.9375 C 5.859375 -1.269531 5.601562 -0.753906 5.09375 -0.390625 C 4.582031 -0.0351562 3.863281 0.140625 2.9375 0.140625 C 1.945312 0.140625 1.160156 -0.015625 0.578125 -0.328125 L 0.578125 -1.046875 C 1.328125 -0.679688 2.113281 -0.5 2.9375 -0.5 C 3.675781 -0.5 4.234375 -0.617188 4.609375 -0.859375 C 4.992188 -1.097656 5.1875 -1.421875 5.1875 -1.828125 C 5.1875 -2.203125 5.03125 -2.515625 4.71875 -2.765625 C 4.414062 -3.023438 3.921875 -3.28125 3.234375 -3.53125 C 2.492188 -3.800781 1.972656 -4.03125 1.671875 -4.21875 C 1.367188 -4.414062 1.140625 -4.632812 0.984375 -4.875 C 0.835938 -5.125 0.765625 -5.421875 0.765625 -5.765625 C 0.765625 -6.328125 0.992188 -6.769531 1.453125 -7.09375 C 1.921875 -7.414062 2.578125 -7.578125 3.421875 -7.578125 C 4.222656 -7.578125 4.984375 -7.425781 5.703125 -7.125 L 5.453125 -6.515625 C 4.722656 -6.804688 4.046875 -6.953125 3.421875 -6.953125 C 2.816406 -6.953125 2.332031 -6.851562 1.96875 -6.65625 C 1.613281 -6.457031 1.4375 -6.179688 1.4375 -5.828125 C 1.4375 -5.441406 1.570312 -5.128906 1.84375 -4.890625 C 2.125 -4.660156 2.664062 -4.398438 3.46875 -4.109375 C 4.144531 -3.867188 4.632812 -3.648438 4.9375 -3.453125 C 5.238281 -3.265625 5.46875 -3.046875 5.625 -2.796875 C 5.78125 -2.554688 5.859375 -2.269531 5.859375 -1.9375 Z M 5.859375 -1.9375 "/></g></g></g><g fill="rgb(9.799194%, 41.958618%, 67.059326%)" fill-opacity="1"><g transform="translate(258.491912, 360.900034)"><g><path d="M 5.75 0 L 5.578125 -1.171875 L 5.53125 -1.171875 C 5.15625 -0.691406 4.769531 -0.351562 4.375 -0.15625 C 3.976562 0.0390625 3.515625 0.140625 2.984375 0.140625 C 2.253906 0.140625 1.6875 -0.046875 1.28125 -0.421875 C 0.875 -0.796875 0.671875 -1.3125 0.671875 -1.96875 C 0.671875 -2.695312 0.972656 -3.257812 1.578125 -3.65625 C 2.179688 -4.0625 3.054688 -4.273438 4.203125 -4.296875 L 5.609375 -4.34375 L 5.609375 -4.828125 C 5.609375 -5.535156 5.460938 -6.066406 5.171875 -6.421875 C 4.890625 -6.785156 4.429688 -6.96875 3.796875 -6.96875 C 3.109375 -6.96875 2.394531 -6.78125 1.65625 -6.40625 L 1.40625 -6.984375 C 2.21875 -7.367188 3.023438 -7.5625 3.828125 -7.5625 C 4.640625 -7.5625 5.242188 -7.347656 5.640625 -6.921875 C 6.046875 -6.503906 6.25 -5.84375 6.25 -4.9375 L 6.25 0 Z M 3.015625 -0.484375 C 3.816406 -0.484375 4.441406 -0.707031 4.890625 -1.15625 C 5.347656 -1.613281 5.578125 -2.242188 5.578125 -3.046875 L 5.578125 -3.78125 L 4.28125 -3.71875 C 3.238281 -3.675781 2.492188 -3.515625 2.046875 -3.234375 C 1.609375 -2.960938 1.390625 -2.535156 1.390625 -1.953125 C 1.390625 -1.484375 1.53125 -1.117188 1.8125 -0.859375 C 2.101562 -0.609375 2.503906 -0.484375 3.015625 -0.484375 Z M 5.1875 -10.28125 C 5.1875 -9.644531 4.800781 -9.242188 4.03125 -9.078125 L 3.96875 -8.265625 L 3.421875 -8.265625 L 3.34375 -9.46875 C 3.75 -9.539062 4.046875 -9.640625 4.234375 -9.765625 C 4.421875 -9.890625 4.515625 -10.054688 4.515625 -10.265625 C 4.515625 -10.484375 4.4375 -10.644531 4.28125 -10.75 C 4.132812 -10.863281 3.878906 -10.921875 3.515625 -10.921875 C 3.296875 -10.921875 3.085938 -10.898438 2.890625 -10.859375 L 2.890625 -11.390625 C 3.117188 -11.453125 3.363281 -11.484375 3.625 -11.484375 C 4.113281 -11.484375 4.492188 -11.378906 4.765625 -11.171875 C 5.046875 -10.960938 5.1875 -10.664062 5.1875 -10.28125 Z M 5.1875 -10.28125 "/></g></g></g><g fill="rgb(9.799194%, 41.958618%, 67.059326%)" fill-opacity="1"><g transform="translate(265.904764, 360.900034)"><g><path d="M 6.421875 0 L 6.421875 -4.8125 C 6.421875 -5.5625 6.265625 -6.101562 5.953125 -6.4375 C 5.640625 -6.78125 5.148438 -6.953125 4.484375 -6.953125 C 3.597656 -6.953125 2.945312 -6.726562 2.53125 -6.28125 C 2.125 -5.832031 1.921875 -5.109375 1.921875 -4.109375 L 1.921875 0 L 1.25 0 L 1.25 -7.4375 L 1.8125 -7.4375 L 1.953125 -6.40625 L 1.984375 -6.40625 C 2.472656 -7.1875 3.332031 -7.578125 4.5625 -7.578125 C 6.25 -7.578125 7.09375 -6.671875 7.09375 -4.859375 L 7.09375 0 Z M 6.421875 0 "/></g></g></g><g fill="rgb(9.799194%, 41.958618%, 67.059326%)" fill-opacity="1"><g transform="translate(274.157968, 360.900034)"><g/></g></g><g fill="rgb(9.799194%, 41.958618%, 67.059326%)" fill-opacity="1"><g transform="translate(277.792657, 360.900034)"><g><path d="M 5.859375 -1.9375 C 5.859375 -1.269531 5.601562 -0.753906 5.09375 -0.390625 C 4.582031 -0.0351562 3.863281 0.140625 2.9375 0.140625 C 1.945312 0.140625 1.160156 -0.015625 0.578125 -0.328125 L 0.578125 -1.046875 C 1.328125 -0.679688 2.113281 -0.5 2.9375 -0.5 C 3.675781 -0.5 4.234375 -0.617188 4.609375 -0.859375 C 4.992188 -1.097656 5.1875 -1.421875 5.1875 -1.828125 C 5.1875 -2.203125 5.03125 -2.515625 4.71875 -2.765625 C 4.414062 -3.023438 3.921875 -3.28125 3.234375 -3.53125 C 2.492188 -3.800781 1.972656 -4.03125 1.671875 -4.21875 C 1.367188 -4.414062 1.140625 -4.632812 0.984375 -4.875 C 0.835938 -5.125 0.765625 -5.421875 0.765625 -5.765625 C 0.765625 -6.328125 0.992188 -6.769531 1.453125 -7.09375 C 1.921875 -7.414062 2.578125 -7.578125 3.421875 -7.578125 C 4.222656 -7.578125 4.984375 -7.425781 5.703125 -7.125 L 5.453125 -6.515625 C 4.722656 -6.804688 4.046875 -6.953125 3.421875 -6.953125 C 2.816406 -6.953125 2.332031 -6.851562 1.96875 -6.65625 C 1.613281 -6.457031 1.4375 -6.179688 1.4375 -5.828125 C 1.4375 -5.441406 1.570312 -5.128906 1.84375 -4.890625 C 2.125 -4.660156 2.664062 -4.398438 3.46875 -4.109375 C 4.144531 -3.867188 4.632812 -3.648438 4.9375 -3.453125 C 5.238281 -3.265625 5.46875 -3.046875 5.625 -2.796875 C 5.78125 -2.554688 5.859375 -2.269531 5.859375 -1.9375 Z M 5.859375 -1.9375 "/></g></g></g><g fill="rgb(9.799194%, 41.958618%, 67.059326%)" fill-opacity="1"><g transform="translate(284.310502, 360.900034)"><g><path d="M 7.390625 -3.71875 C 7.390625 -2.507812 7.09375 -1.5625 6.5 -0.875 C 5.914062 -0.195312 5.109375 0.140625 4.078125 0.140625 C 3.421875 0.140625 2.84375 -0.015625 2.34375 -0.328125 C 1.851562 -0.648438 1.472656 -1.101562 1.203125 -1.6875 C 0.941406 -2.28125 0.8125 -2.957031 0.8125 -3.71875 C 0.8125 -4.9375 1.101562 -5.882812 1.6875 -6.5625 C 2.28125 -7.238281 3.085938 -7.578125 4.109375 -7.578125 C 5.128906 -7.578125 5.929688 -7.234375 6.515625 -6.546875 C 7.097656 -5.859375 7.390625 -4.914062 7.390625 -3.71875 Z M 1.53125 -3.71875 C 1.53125 -2.695312 1.753906 -1.898438 2.203125 -1.328125 C 2.648438 -0.765625 3.285156 -0.484375 4.109375 -0.484375 C 4.921875 -0.484375 5.550781 -0.765625 6 -1.328125 C 6.445312 -1.898438 6.671875 -2.695312 6.671875 -3.71875 C 6.671875 -4.75 6.441406 -5.546875 5.984375 -6.109375 C 5.535156 -6.671875 4.90625 -6.953125 4.09375 -6.953125 C 3.269531 -6.953125 2.632812 -6.671875 2.1875 -6.109375 C 1.75 -5.546875 1.53125 -4.75 1.53125 -3.71875 Z M 4.234375 -10.375 C 4.691406 -9.757812 5.210938 -9.164062 5.796875 -8.59375 L 5.796875 -8.484375 L 5.34375 -8.484375 C 4.757812 -8.910156 4.265625 -9.3125 3.859375 -9.6875 C 3.453125 -9.3125 2.957031 -8.910156 2.375 -8.484375 L 1.90625 -8.484375 L 1.90625 -8.59375 C 2.550781 -9.207031 3.085938 -9.800781 3.515625 -10.375 Z M 5.265625 -9.921875 C 5.453125 -10.171875 5.597656 -10.375 5.703125 -10.53125 C 5.804688 -10.695312 5.96875 -10.976562 6.1875 -11.375 L 7.03125 -11.375 L 7.03125 -11.265625 C 6.625 -10.710938 6.1875 -10.226562 5.71875 -9.8125 L 5.265625 -9.8125 Z M 5.265625 -9.921875 "/></g></g></g><g fill="rgb(9.799194%, 41.958618%, 67.059326%)" fill-opacity="1"><g transform="translate(292.509049, 360.900034)"><g/></g></g><g fill="rgb(9.799194%, 41.958618%, 67.059326%)" fill-opacity="1"><g transform="translate(296.143738, 360.900034)"><g><path d="M 4.65625 0 L 4 0 L 4 -7.28125 C 4 -7.9375 4.023438 -8.625 4.078125 -9.34375 C 4.003906 -9.269531 3.929688 -9.203125 3.859375 -9.140625 C 3.785156 -9.078125 3.082031 -8.523438 1.75 -7.484375 L 1.359375 -7.96875 L 4.078125 -10 L 4.65625 -10 Z M 4.65625 0 "/></g></g></g></svg>