<svg xmlns="http://www.w3.org/2000/svg" viewBox="0 0 14.78 18.02"><defs><style>.cls-1{fill:#282828;}</style></defs><title>Asset 15</title><g id="Layer_2" data-name="Layer 2"><g id="Layer_1-2" data-name="Layer 1"><path class="cls-1" d="M6.9,12.81a.69.69,0,0,0,1,0l4.36-4.35a.69.69,0,0,0-1-1L8.17,10.56V.7A.7.7,0,1,0,6.78.7v10L3.7,7.66a.69.69,0,1,0-1,1Z"/><path class="cls-1" d="M14.09,12.38a.69.69,0,0,0-.69.69v3.56h-12V13.07a.69.69,0,0,0-.69-.69.69.69,0,0,0-.7.69v4.26A.69.69,0,0,0,.7,18H14.09a.69.69,0,0,0,.69-.69V13.07a.69.69,0,0,0-.69-.69Z"/></g></g></svg>