<svg xmlns="http://www.w3.org/2000/svg" viewBox="0 0 47.02 14.34"><defs><style>.cls-1{fill:#00deb6;}.cls-2{fill:#262637;}</style></defs><title>Asset 12</title><g id="Layer_2" data-name="Layer 2"><g id="Layer_1-2" data-name="Layer 1"><path class="cls-1" d="M46.35,0H45.06a.57.57,0,0,0-.41.17l-2.31,2.3L40,.17A.57.57,0,0,0,39.61,0H38.32a.67.67,0,0,0-.67.68V7.22a.67.67,0,0,0,.67.67H39.8a.67.67,0,0,0,.68-.67V4.66L42.34,2.8h0l1.85,1.86V7.22a.67.67,0,0,0,.68.67h1.48A.67.67,0,0,0,47,7.22V.68A.67.67,0,0,0,46.35,0Z"/><g id="_Group_" data-name="&lt;Group&gt;"><path id="_Compound_Path_" data-name="&lt;Compound Path&gt;" class="cls-2" d="M12.48,4.31a3,3,0,0,1,.77,2.19v4.93H10.68V7.23a1.53,1.53,0,0,0-.35-1.05,1.23,1.23,0,0,0-.94-.38,1.39,1.39,0,0,0-1.08.5,2,2,0,0,0-.4,1.27v3.86H5.34V7.23A1.53,1.53,0,0,0,5,6.18a1.21,1.21,0,0,0-.94-.38A1.39,1.39,0,0,0,3,6.3a1.92,1.92,0,0,0-.41,1.27v3.86H0V3.6H2.56V4.89a2.73,2.73,0,0,1,1-1,3,3,0,0,1,1.5-.36A2.89,2.89,0,0,1,6.74,4a2.53,2.53,0,0,1,1,1.29A2.82,2.82,0,0,1,8.79,3.94a3.08,3.08,0,0,1,1.65-.44A2.67,2.67,0,0,1,12.48,4.31Z"/><path id="_Compound_Path_2" data-name="&lt;Compound Path&gt;" class="cls-2" d="M20.56,4a3.78,3.78,0,0,1,1.5,1.41,4,4,0,0,1,.54,2.09,4,4,0,0,1-.54,2.1A3.71,3.71,0,0,1,20.56,11a5.29,5.29,0,0,1-4.49,0,3.62,3.62,0,0,1-1.49-1.41,4,4,0,0,1-.53-2.1,4,4,0,0,1,.53-2.09A3.69,3.69,0,0,1,16.07,4a4.89,4.89,0,0,1,2.24-.49A4.9,4.9,0,0,1,20.56,4ZM17.1,6.13a2.08,2.08,0,0,0-.46,1.41A2,2,0,0,0,17.1,9a1.65,1.65,0,0,0,2.44,0A2.05,2.05,0,0,0,20,7.54a2.09,2.09,0,0,0-.47-1.41,1.58,1.58,0,0,0-1.23-.53A1.54,1.54,0,0,0,17.1,6.13Z"/><path id="_Compound_Path_3" data-name="&lt;Compound Path&gt;" class="cls-2" d="M31.46,3.6v7.13a3.39,3.39,0,0,1-.53,1.91,3.49,3.49,0,0,1-1.5,1.25,5.18,5.18,0,0,1-2.22.45,6.6,6.6,0,0,1-1.89-.28,5.82,5.82,0,0,1-1.61-.74l.9-1.78a4.32,4.32,0,0,0,1.16.57,4.13,4.13,0,0,0,1.25.2,2.16,2.16,0,0,0,1.38-.4,1.33,1.33,0,0,0,.5-1.1V10a2.63,2.63,0,0,1-2.22,1,3.15,3.15,0,0,1-2.92-1.8,4.43,4.43,0,0,1-.43-2,4.29,4.29,0,0,1,.42-1.94A3.06,3.06,0,0,1,24.91,4a3.17,3.17,0,0,1,1.71-.46,3.1,3.1,0,0,1,1.31.26,2.54,2.54,0,0,1,1,.78v-1Zm-3,5a2,2,0,0,0,.43-1.32A2,2,0,0,0,28.47,6a1.43,1.43,0,0,0-1.14-.51A1.45,1.45,0,0,0,26.18,6a1.92,1.92,0,0,0-.44,1.32,1.92,1.92,0,0,0,.44,1.32,1.44,1.44,0,0,0,1.15.5A1.42,1.42,0,0,0,28.47,8.61Z"/><path id="_Compound_Path_4" data-name="&lt;Compound Path&gt;" class="cls-2" d="M34.67.38a1.34,1.34,0,0,1,.39,1,1.34,1.34,0,0,1-.39,1,1.3,1.3,0,0,1-1,.39,1.32,1.32,0,0,1-1-.39,1.33,1.33,0,0,1-.38-1,1.33,1.33,0,0,1,.38-1,1.35,1.35,0,0,1,1-.38A1.33,1.33,0,0,1,34.67.38ZM32.44,3.6H35v7.83H32.44Z"/></g></g></g></svg>