<svg xmlns="http://www.w3.org/2000/svg" viewBox="0 0 307.09 93.62"><defs><style>.cls-1{fill:#00ddb5;}.cls-2{fill:#fff;}</style></defs><title>Asset 5</title><g id="Layer_2" data-name="Layer 2"><g id="Layer_1-2" data-name="Layer 1"><path class="cls-1" d="M302.67,0h-8.41a3.76,3.76,0,0,0-2.68,1.11l-15.11,15-15.11-15A3.76,3.76,0,0,0,258.68,0h-8.41a4.43,4.43,0,0,0-4.42,4.43V47.12a4.43,4.43,0,0,0,4.42,4.43h9.67a4.43,4.43,0,0,0,4.42-4.43V30.42l12.11-12.11h0l12.11,12.11v16.7A4.43,4.43,0,0,0,293,51.55h9.67a4.43,4.43,0,0,0,4.42-4.43V4.43A4.43,4.43,0,0,0,302.67,0Z"/><g id="_Group_" data-name="&lt;Group&gt;"><path id="_Compound_Path_" data-name="&lt;Compound Path&gt;" class="cls-2" d="M81.53,28.15q5,5.3,5,14.27V74.63H69.72V47.24a9.83,9.83,0,0,0-2.27-6.85,7.87,7.87,0,0,0-6.14-2.51,8.89,8.89,0,0,0-7,3.26,12.58,12.58,0,0,0-2.6,8.27V74.63H34.86V47.24a9.83,9.83,0,0,0-2.27-6.85,7.87,7.87,0,0,0-6.14-2.51,9,9,0,0,0-7.08,3.26,12.44,12.44,0,0,0-2.65,8.27V74.63H0V23.52H16.72v8.41a18,18,0,0,1,6.85-6.75,19.87,19.87,0,0,1,9.78-2.32,18.48,18.48,0,0,1,10.67,3,16.4,16.4,0,0,1,6.33,8.4,18.46,18.46,0,0,1,7-8.55,19.92,19.92,0,0,1,10.82-2.88Q76.52,22.86,81.53,28.15Z"/><path id="_Compound_Path_2" data-name="&lt;Compound Path&gt;" class="cls-2" d="M134.25,26.22a23.75,23.75,0,0,1,9.82,9.16A26.31,26.31,0,0,1,147.57,49a26.5,26.5,0,0,1-3.5,13.75,23.81,23.81,0,0,1-9.82,9.16A31.62,31.62,0,0,1,119.6,75.2,31.58,31.58,0,0,1,105,71.94a23.53,23.53,0,0,1-9.78-9.16A26.77,26.77,0,0,1,91.73,49a26.58,26.58,0,0,1,3.45-13.65A23.47,23.47,0,0,1,105,26.22,31.46,31.46,0,0,1,119.6,23,31.5,31.5,0,0,1,134.25,26.22ZM111.67,40.06a13.48,13.48,0,0,0-3,9.16,13.64,13.64,0,0,0,3,9.26A10,10,0,0,0,119.6,62a10.08,10.08,0,0,0,8-3.49,13.64,13.64,0,0,0,3-9.26,13.4,13.4,0,0,0-3.07-9.16,10.14,10.14,0,0,0-8-3.5A10,10,0,0,0,111.67,40.06Z"/><path id="_Compound_Path_3" data-name="&lt;Compound Path&gt;" class="cls-2" d="M205.48,23.52V70.1A22.16,22.16,0,0,1,202,82.52a22.64,22.64,0,0,1-9.78,8.22,34.46,34.46,0,0,1-14.5,2.88,42.85,42.85,0,0,1-12.38-1.79A39.53,39.53,0,0,1,154.84,87l5.86-11.62a30.1,30.1,0,0,0,7.56,3.68,26.48,26.48,0,0,0,8.22,1.33c3.78,0,6.77-.89,9-2.65a8.69,8.69,0,0,0,3.31-7.18V65.09q-5.1,6.7-14.55,6.71a20.48,20.48,0,0,1-19-11.76,28.66,28.66,0,0,1-2.79-12.9,28.47,28.47,0,0,1,2.69-12.66,20.22,20.22,0,0,1,7.61-8.5,20.77,20.77,0,0,1,11.14-3,20.42,20.42,0,0,1,8.55,1.74,16.71,16.71,0,0,1,6.38,5.06V23.52ZM185.93,56.21a12.74,12.74,0,0,0,2.83-8.6,12.89,12.89,0,0,0-2.83-8.69,10.1,10.1,0,0,0-15,0,12.81,12.81,0,0,0-2.88,8.64,12.61,12.61,0,0,0,2.88,8.6,9.48,9.48,0,0,0,7.51,3.31A9.34,9.34,0,0,0,185.93,56.21Z"/><path id="_Compound_Path_4" data-name="&lt;Compound Path&gt;" class="cls-2" d="M226.43,2.5A8.76,8.76,0,0,1,228.93,9a8.79,8.79,0,0,1-2.5,6.43,9.24,9.24,0,0,1-12.75,0A8.8,8.8,0,0,1,211.17,9a8.76,8.76,0,0,1,2.51-6.47,9.38,9.38,0,0,1,12.75,0Zm-14.6,21h16.73V74.63H211.83Z"/></g></g></g></svg>