<?xml version="1.0" standalone="no"?>
<!DOCTYPE svg PUBLIC "-//W3C//DTD SVG 1.1//EN" "http://www.w3.org/Graphics/SVG/1.1/DTD/svg11.dtd" >
<svg xmlns="http://www.w3.org/2000/svg">
<metadata>Generated by IcoMoon</metadata>
<defs>
<font id="mogi" horiz-adv-x="1024">
<font-face units-per-em="1024" ascent="960" descent="-64" />
<missing-glyph horiz-adv-x="1024" />
<glyph unicode="&#x20;" horiz-adv-x="512" d="" />
<glyph unicode="&#xf002;" glyph-name="search" d="M1017.994 8.271l-243.037 243.037c-4.604 4.604-10.61 7.007-17.017 7.007h-26.426c63.062 73.071 101.299 168.164 101.299 272.266 0 230.025-186.382 416.407-416.407 416.407s-416.407-186.382-416.407-416.407 186.382-416.407 416.407-416.407c104.102 0 199.195 38.237 272.266 101.299v-26.426c0-6.406 2.603-12.412 7.007-17.017l243.037-243.037c9.409-9.409 24.624-9.409 34.033 0l45.244 45.244c9.409 9.409 9.409 24.624 0 34.033zM416.407 210.268c-176.973 0-320.313 143.34-320.313 320.313s143.34 320.313 320.313 320.313 320.313-143.34 320.313-320.313-143.34-320.313-320.313-320.313z" />
<glyph unicode="&#xf004;" glyph-name="heart" d="M925.504 821.665c-109.707 93.491-272.866 76.675-373.565-27.227l-39.439-40.64-39.439 40.64c-100.498 103.901-263.858 120.718-373.565 27.227-125.723-107.305-132.329-299.893-19.819-416.206l387.378-399.991c25.024-25.825 65.664-25.825 90.689 0l387.378 399.991c112.71 116.314 106.104 308.902-19.619 416.206z" />
<glyph unicode="&#xf005;" glyph-name="star" horiz-adv-x="1152" d="M518.6 924.4l-130.6-264.8-292.2-42.6c-52.4-7.6-73.4-72.2-35.4-109.2l211.4-206-50-291c-9-52.6 46.4-92 92.8-67.4l261.4 137.4 261.4-137.4c46.4-24.4 101.8 14.8 92.8 67.4l-50 291 211.4 206c38 37 17 101.6-35.4 109.2l-292.2 42.6-130.6 264.8c-23.4 47.2-91.2 47.8-114.8 0z" />
<glyph unicode="&#xf006;" glyph-name="star-o" horiz-adv-x="1152" d="M1056.2 617l-292.2 42.6-130.6 264.8c-23.4 47.2-91.2 47.8-114.8 0l-130.6-264.8-292.2-42.6c-52.4-7.6-73.4-72.2-35.4-109.2l211.4-206-50-291c-9-52.6 46.4-92 92.8-67.4l261.4 137.4 261.4-137.4c46.4-24.4 101.8 14.8 92.8 67.4l-50 291 211.4 206c38 37 17 101.6-35.4 109.2zM811.6 324.2l55.6-324-291.2 152.8-291-153 55.6 324-235.6 229.8 325.4 47.2 145.6 295 145.6-295 325.4-47.2-235.4-229.6z" />
<glyph unicode="&#xf00c;" glyph-name="check" horiz-adv-x="896" d="M827.010 776.098l-560.030-560.030-197.99 197.99c-9.372 9.372-24.568 9.372-33.942 0l-22.626-22.626c-9.372-9.372-9.372-24.568 0-33.942l237.588-237.588c9.372-9.372 24.568-9.372 33.942 0l599.626 599.626c9.372 9.372 9.372 24.568 0 33.942l-22.628 22.628c-9.372 9.372-24.568 9.372-33.94 0z" />
<glyph unicode="&#xf00d;" glyph-name="close" horiz-adv-x="640" d="M387.88 448l247.42 247.42c6.24 6.24 6.24 16.38 0 22.62l-45.26 45.26c-6.24 6.24-16.38 6.24-22.62 0l-247.42-247.42-247.42 247.44c-6.24 6.24-16.38 6.24-22.62 0l-45.28-45.26c-6.24-6.24-6.24-16.38 0-22.62l247.44-247.44-247.44-247.42c-6.24-6.24-6.24-16.38 0-22.62l45.26-45.26c6.24-6.24 16.38-6.24 22.62 0l247.44 247.42 247.42-247.42c6.24-6.24 16.38-6.24 22.62 0l45.26 45.26c6.24 6.24 6.24 16.38 0 22.62l-247.42 247.42z" />
<glyph unicode="&#xf02f;" glyph-name="print" d="M864 576h-32v165.5c0 16.98-6.74 33.24-18.74 45.26l-154.52 154.5c-12 12-28.28 18.74-45.26 18.74h-360.52c-33.68 0-60.96-28.66-60.96-64v-320h-32c-88.36 0-160-71.64-160-160v-192c0-17.68 14.32-32 32-32h160v-224c0-17.68 14.32-32 32-32h576c17.68 0 32 14.32 32 32v224h160c17.68 0 32 14.32 32 32v192c0 88.36-71.64 160-160 160zM640 869.5l101.5-101.5h-101.5v101.5zM256.24 896h319.76v-128c0-35.34 28.66-64 64-64h128v-128h-511.96l0.2 320zM768 0h-512v192h512v-192zM960 256h-896v160c0 52.94 43.060 96 96 96h704c52.94 0 96-43.060 96-96v-160zM800 432c-26.5 0-48-21.48-48-48 0-26.5 21.5-48 48-48s48 21.5 48 48c0 26.52-21.5 48-48 48z" />
<glyph unicode="&#xf030;" glyph-name="camera" d="M1024 672v-576c0-53-43-96-96-96h-832c-53 0-96 43-96 96v576c0 53 43 96 96 96h176l24.6 65.8c14 37.4 49.8 62.2 89.8 62.2h251c40 0 75.8-24.8 89.8-62.2l24.8-65.8h176c53 0 96-43 96-96z" />
<glyph unicode="&#xf03a;" glyph-name="list" d="M1000 712h-720c-13.254 0-24 10.746-24 24v64c0 13.254 10.746 24 24 24h720c13.254 0 24-10.746 24-24v-64c0-13.254-10.746-24-24-24zM1024 416v64c0 13.254-10.746 24-24 24h-720c-13.254 0-24-10.746-24-24v-64c0-13.254 10.746-24 24-24h720c13.254 0 24 10.746 24 24zM1024 96v64c0 13.254-10.746 24-24 24h-720c-13.254 0-24-10.746-24-24v-64c0-13.254 10.746-24 24-24h720c13.254 0 24 10.746 24 24zM184 704v128c0 13.254-10.746 24-24 24h-128c-13.254 0-24-10.746-24-24v-128c0-13.254 10.746-24 24-24h128c13.254 0 24 10.746 24 24zM184 384v128c0 13.254-10.746 24-24 24h-128c-13.254 0-24-10.746-24-24v-128c0-13.254 10.746-24 24-24h128c13.254 0 24 10.746 24 24zM184 64v128c0 13.254-10.746 24-24 24h-128c-13.254 0-24-10.746-24-24v-128c0-13.254 10.746-24 24-24h128c13.254 0 24 10.746 24 24z" />
<glyph unicode="&#xf058;" glyph-name="check-circle" d="M512 944c-273.934 0-496-222.066-496-496s222.066-496 496-496 496 222.066 496 496-222.066 496-496 496zM512 848c221.064 0 400-178.902 400-400 0-221.064-178.902-400-400-400-221.064 0-400 178.902-400 400 0 221.064 178.902 400 400 400zM792.408 587.466l-45.072 45.436c-9.334 9.41-24.53 9.472-33.94 0.136l-282.704-280.432-119.584 120.554c-9.334 9.41-24.53 9.472-33.94 0.138l-45.438-45.072c-9.41-9.334-9.472-24.53-0.136-33.942l181.562-183.032c9.334-9.41 24.53-9.472 33.94-0.136l345.178 342.408c9.408 9.336 9.468 24.532 0.134 33.942z" />
<glyph unicode="&#xf05c;" glyph-name="times-circle" d="M512.5 930.972c-274.268 0-496.485-222.217-496.485-496.485s222.217-496.485 496.485-496.485 496.485 222.217 496.485 496.485-222.217 496.485-496.485 496.485zM512.5 2.065c-237.632 0-432.422 192.388-432.422 432.422 0 237.632 192.388 432.422 432.422 432.422 237.632 0 432.422-192.388 432.422-432.422 0-237.632-192.388-432.422-432.422-432.422zM702.286 573.222l-138.735-138.735 138.735-138.735c9.409-9.409 9.409-24.624 0-34.033l-17.017-17.017c-9.409-9.409-24.624-9.409-34.033 0l-138.735 138.735-138.735-138.735c-9.409-9.409-24.624-9.409-34.033 0l-17.017 17.017c-9.409 9.409-9.409 24.624 0 34.033l138.735 138.735-138.735 138.735c-9.409 9.409-9.409 24.624 0 34.033l17.017 17.017c9.409 9.409 24.624 9.409 34.033 0l138.735-138.735 138.735 138.735c9.409 9.409 24.624 9.409 34.033 0l17.017-17.017c9.209-9.409 9.209-24.624 0-34.033z" />
<glyph unicode="&#xf071;" glyph-name="exclamation-triangle" horiz-adv-x="1153" d="M1140.147 66.101c36.952-64.051-9.431-144.115-83.235-144.115h-960.71c-73.946 0-120.115 80.186-83.235 144.115l480.361 832.869c36.97 64.081 129.567 63.966 166.471 0l480.349-832.869zM1084.777 34.088l-480.469 832.813c-12.332 21.377-43.208 21.289-55.49 0l-480.469-832.813c-12.328-21.369 3.183-48.039 27.745-48.039h960.938c24.67 0 40.019 26.764 27.745 48.039zM576.563 202.26c-30.958 0-56.055-25.097-56.055-56.055s25.097-56.055 56.055-56.055 56.055 25.097 56.055 56.055-25.097 56.055-56.055 56.055zM553.561 626.674h46.003c13.659 0 24.572-11.375 24.003-25.024l-14.014-336.328c-0.537-12.869-11.123-23.022-24.003-23.022h-17.976c-12.879 0-23.467 10.156-24.003 23.022l-14.014 336.328c-0.567 13.649 10.344 25.024 24.003 25.024zM576.563 202.26c-30.958 0-56.055-25.097-56.055-56.055s25.097-56.055 56.055-56.055 56.055 25.097 56.055 56.055-25.097 56.055-56.055 56.055z" />
<glyph unicode="&#xf07a;" glyph-name="cart" horiz-adv-x="1152" d="M1103.982 832h-845.422l-16.658 88.846c-4.258 22.702-24.080 39.154-47.178 39.154h-170.724c-13.254 0-24-10.746-24-24v-16c0-13.254 10.746-24 24-24h157.44l139.854-745.892c-20.684-22.736-33.294-52.948-33.294-86.108 0-70.692 57.308-128 128-128s128 57.308 128 128c0 0.042 0 0.092 0 0.141 0 23.519-6.375 45.549-17.491 64.456l0.325-0.597h290.334c-10.791-18.31-17.166-40.34-17.166-63.859 0-0.050 0-0.099 0-0.149v0.008c0-70.692 57.308-128 128-128s128 57.308 128 128c0 35.986-14.87 68.48-38.776 91.736-5.182 20.482-23.706 36.264-46.57 36.264h-592.096l-24 128h662.762c22.736 0 42.354 15.952 46.992 38.21l86.662 416c6.208 29.808-16.546 57.79-46.994 57.79zM480 64c0-35.29-28.71-64-64-64s-64 28.71-64 64 28.71 64 64 64 64-28.71 64-64zM928 0c-35.29 0-64 28.71-64 64s28.71 64 64 64 64-28.71 64-64-28.71-64-64-64zM1004.312 384h-661.752l-72 384h813.752l-80-384z" />
<glyph unicode="&#xf083;" glyph-name="camera-o" d="M648.6 832c6.6 0 12.6-4.2 15-10.4l44.2-117.6h220.2c17.6 0 32-14.4 32-32v-576c0-17.6-14.4-32-32-32h-832c-17.6 0-32 14.4-32 32v576c0 17.6 14.4 32 32 32h220.4l40.2 107.2c4.6 12.4 16.6 20.8 30 20.8h262zM648.6 896h-262c-40 0-75.8-24.8-89.8-62.2l-24.8-65.8h-176c-53 0-96-43-96-96v-576c0-53 43-96 96-96h832c53 0 96 43 96 96v576c0 53-43 96-96 96h-176l-28.6 76c-11.6 31.4-41.4 52-74.8 52zM512 144c-132.4 0-240 107.6-240 240s107.6 240 240 240 240-107.6 240-240-107.6-240-240-240zM512 560c-97 0-176-79-176-176s79-176 176-176 176 79 176 176-79 176-176 176z" />
<glyph unicode="&#xf08a;" glyph-name="heart-o" d="M925.504 821.465c-109.107 92.891-272.266 77.476-373.565-27.026l-39.439-40.84-39.439 40.64c-81.68 84.483-246.441 135.332-373.565 27.227-125.723-107.305-132.329-299.893-19.819-416.006l387.378-399.991c12.412-12.813 28.828-19.419 45.244-19.419s32.832 6.406 45.244 19.419l387.378 399.991c112.91 116.113 106.304 308.701-19.419 416.006zM899.278 449.902l-385.977-399.991-387.578 399.991c-76.875 79.277-92.891 230.425 15.415 322.715 109.707 93.691 238.633 25.825 285.879-23.022l85.483-88.286 85.483 88.286c46.445 48.047 176.572 116.113 285.879 23.022 108.106-92.090 92.29-243.238 15.415-322.715z" />
<glyph unicode="&#xf095;" glyph-name="phone" d="M914.893 238.295c0-10.010-2.002-24.023-6.006-40.039-4.004-18.018-8.008-30.029-12.012-40.039-8.008-20.020-30.029-40.039-70.068-60.059-34.033-20.020-70.068-30.029-106.104-30.029-10.010 0-20.020 0-30.029 2.002s-20.020 4.004-32.031 8.008c-12.012 2.002-22.022 6.006-28.027 8.008s-16.016 6.006-32.031 12.012c-14.014 6.006-24.023 8.008-28.027 10.010-36.035 14.014-70.068 28.027-100.098 48.047-48.047 30.029-98.096 70.068-150.147 122.119s-94.092 104.102-124.121 152.149c-18.018 28.027-34.033 62.061-46.045 100.098-2.002 2.002-6.006 12.012-12.012 28.027-4.004 14.014-8.008 26.025-10.010 32.031s-6.006 14.014-10.010 26.025c-2.002 12.012-4.004 22.022-6.006 32.031s-2.002 20.020-2.002 32.031c0 34.033 10.010 70.068 28.027 106.104 22.022 38.037 42.041 62.061 62.061 70.068 8.008 4.004 22.022 8.008 38.037 12.012 18.018 2.002 30.029 4.004 40.039 4.004 6.006 0 10.010 0 12.012 0 8.008-4.004 18.018-18.018 32.031-44.043 4.004-8.008 10.010-18.018 16.016-32.031 8.008-12.012 14.014-24.023 20.020-36.035 6.006-10.010 12.012-20.020 18.018-30.029 2.002-2.002 4.004-6.006 10.010-14.014s10.010-16.016 12.012-20.020c2.002-6.006 4.004-12.012 4.004-16.016 0-8.008-6.006-18.018-16.016-30.029-10.010-10.010-22.022-22.022-36.035-30.029-12.012-10.010-24.023-20.020-34.033-32.031-12.012-10.010-18.018-18.018-18.018-26.025 0-2.002 2.002-8.008 4.004-12.012 2.002-6.006 4.004-10.010 4.004-12.012 2.002-2.002 4.004-8.008 8.008-14.014s6.006-10.010 8.008-10.010c28.027-52.051 62.061-98.096 98.096-134.131 38.037-38.037 82.080-72.070 134.131-100.098 2.002 0 6.006-2.002 12.012-6.006s10.010-8.008 14.014-8.008c2.002-2.002 6.006-4.004 12.012-6.006 4.004-2.002 8.008-2.002 12.012-2.002 6.006 0 16.016 4.004 26.025 16.016 10.010 10.010 22.022 22.022 30.029 36.035 10.010 12.012 20.020 24.023 32.031 34.033 12.012 12.012 20.020 16.016 28.027 16.016 6.006 0 12.012 0 16.016-4.004 6.006-2.002 14.014-6.006 22.022-12.012 8.008-4.004 12.012-8.008 14.014-10.010 8.008-6.006 20.020-12.012 30.029-18.018s22.022-12.012 36.035-20.020c14.014-6.006 24.023-12.012 32.031-16.016 26.025-14.014 40.039-24.023 42.041-30.029 2.002-4.004 2.002-8.008 2.002-12.012z" />
<glyph unicode="&#xf09a;" glyph-name="facebook" horiz-adv-x="897" d="M896.876 833.476v-797.779c0-27.427-22.222-49.448-49.448-49.448h-228.623v347.139h116.514l17.417 135.332h-134.131v86.484c0 39.238 10.811 65.864 67.065 65.864h71.67v121.118c-12.412 1.602-54.854 5.405-104.502 5.405-103.301 0-174.17-63.062-174.17-178.975v-99.898h-116.914v-135.332h116.914v-347.339h-429.219c-27.227 0-49.448 22.222-49.448 49.448v797.979c0 27.227 22.222 49.448 49.448 49.448h797.779c27.427 0 49.648-22.222 49.648-49.448z" />
<glyph unicode="&#xf0a2;" glyph-name="bell-o" horiz-adv-x="897" d="M448.438-13.951c-35.355 0-64.063 28.788-64.063 64.123h-64.063c0-70.689 57.496-128.185 128.125-128.185s128.125 57.496 128.125 128.185h-64.063c0-35.335-28.708-64.123-64.063-64.123zM867.607 276.713c-55.975 53.292-98.776 109.067-98.776 298.111 0 159.336-126.904 289.283-288.362 304.998v35.134c0 17.697-14.334 32.031-32.031 32.031s-32.031-14.334-32.031-32.031v-35.154c-161.458-15.715-288.362-145.642-288.362-304.978 0-189.025-42.822-244.819-98.796-298.111-27.967-26.626-36.796-66.885-22.522-102.56 14.574-36.436 49.648-59.979 89.367-59.979h704.688c39.719 0 74.793 23.563 89.367 59.999 14.274 35.675 5.425 75.914-22.542 102.54zM800.782 178.237h-704.688c-28.488 0-42.722 32.972-22.662 52.071 69.788 66.445 118.676 140.818 118.676 344.496 0 134.892 114.652 244.058 256.33 244.058 141.658 0 256.33-109.147 256.33-244.038 0-202.898 48.467-277.671 118.676-344.496 20.14-19.199 5.706-52.091-22.662-52.091z" />
<glyph unicode="&#xf0b0;" glyph-name="filter" d="M927.904 960h-831.79c-85.276 0-128.302-103.462-67.882-163.882l323.768-323.882v-344.236c0-30.216 14.226-58.67 38.4-80l128-94.132c62.546-43.71 153.6-3.076 153.6 76.8v441.568l323.786 323.882c60.298 60.298 17.564 163.882-67.882 163.882zM576 512v-480l-128 96v384l-352 352h832l-352-352z" />
<glyph unicode="&#xf0c8;" glyph-name="square-o" horiz-adv-x="896" d="M800 896h-704c-53 0-96-43-96-96v-704c0-53 43-96 96-96h704c53 0 96 43 96 96v704c0 53-43 96-96 96zM832 96c0-17.6-14.4-32-32-32h-704c-17.6 0-32 14.4-32 32v704c0 17.6 14.4 32 32 32h704c17.6 0 32-14.4 32-32v-704z" />
<glyph unicode="&#xf0c9;" glyph-name="bars" horiz-adv-x="897" d="M32.031 682.729h832.813c17.691 0 32.031 14.34 32.031 32.031v80.078c0 17.691-14.34 32.031-32.031 32.031h-832.813c-17.691 0-32.031-14.34-32.031-32.031v-80.078c0-17.691 14.34-32.031 32.031-32.031zM32.031 362.416h832.813c17.691 0 32.031 14.34 32.031 32.031v80.078c0 17.691-14.34 32.031-32.031 32.031h-832.813c-17.691 0-32.031-14.34-32.031-32.031v-80.078c0-17.691 14.34-32.031 32.031-32.031zM32.031 42.104h832.813c17.691 0 32.031 14.34 32.031 32.031v80.078c0 17.691-14.34 32.031-32.031 32.031h-832.813c-17.691 0-32.031-14.34-32.031-32.031v-80.078c0-17.691 14.34-32.031 32.031-32.031z" />
<glyph unicode="&#xf0d5;" glyph-name="google-plus" horiz-adv-x="1281" d="M772.877 489.549c3.672-19.403 6.292-38.806 6.292-63.974 0-219.721-147.354-375.463-369.169-375.463-212.375 0-384.375 171.998-384.375 384.375s172 384.375 384.375 384.375c103.829 0 190.352-37.755 257.473-100.682l-104.354-100.158c-28.318 27.269-78.132 59.256-153.12 59.256-131.096 0-238.072-108.548-238.072-242.791s106.976-242.791 238.072-242.791c152.071 0 209.23 109.597 218.143 165.708h-218.143v132.147h362.876zM1144.051 476.662v111.575h-112.111v-111.575h-111.575v-112.111h111.575v-111.575h112.111v111.575h111.575v112.111h-111.575z" />
<glyph unicode="&#xf0d7;" glyph-name="caret-down" horiz-adv-x="640" d="M575.936 640h-511.86c-56.85 0-85.534-68.976-45.254-109.254l255.924-256c24.992-24.992 65.516-24.994 90.51 0l255.936 256c40.198 40.198 11.708 109.254-45.256 109.254zM320 320l-256 256h512l-256-256z" />
<glyph unicode="&#xf0d8;" glyph-name="caret-up" horiz-adv-x="640" d="M64.064 256h511.86c56.85 0 85.534 68.976 45.254 109.254l-255.924 256c-24.992 24.992-65.516 24.994-90.51 0l-255.936-256c-40.198-40.198-11.708-109.254 45.256-109.254zM320 576l256-256h-512l256 256z" />
<glyph unicode="&#xf0d9;" glyph-name="caret-left" horiz-adv-x="384" d="M384 192.064v511.86c0 56.85-68.976 85.534-109.254 45.254l-256-255.924c-24.992-24.992-24.994-65.516 0-90.51l256-255.936c40.198-40.198 109.254-11.708 109.254 45.256zM64 448l256 256v-512l-256 256z" />
<glyph unicode="&#xf0da;" glyph-name="caret-right" horiz-adv-x="384" d="M0 703.936v-511.86c0-56.85 68.976-85.534 109.254-45.254l256 255.924c24.992 24.992 24.994 65.516 0 90.51l-256 255.936c-40.198 40.198-109.254 11.708-109.254-45.256zM320 448l-256-256v512l256-256z" />
<glyph unicode="&#xf0dc;" glyph-name="sort" horiz-adv-x="640" d="M544 384h-447.8c-85.2 0-128.4-103.4-67.8-163.8l223.8-224c37.4-37.4 98.2-37.4 135.8 0l224 224c60 60.2 17.4 163.8-68 163.8zM320 64l-224 224h448l-224-224zM96 512h447.8c85.2 0 128.4 103.4 67.8 163.8l-223.8 224c-37.4 37.4-98.2 37.4-135.8 0l-224-224c-60-60.2-17.4-163.8 68-163.8zM320 832l224-224h-448l224 224z" />
<glyph unicode="&#xf0e0;" glyph-name="envelope" d="M928.907 818.862h-832.813c-53.052 0-96.094-43.042-96.094-96.094v-576.563c0-53.052 43.042-96.094 96.094-96.094h832.813c53.052 0 96.094 43.042 96.094 96.094v576.563c0 53.052-43.042 96.094-96.094 96.094zM96.094 754.8h832.813c17.617 0 32.031-14.414 32.031-32.031v-82.881c-43.843-37.036-106.504-88.086-301.494-242.837-33.833-26.826-100.498-91.489-146.943-90.689-46.445-0.801-113.311 63.862-146.943 90.689-194.99 154.751-257.652 205.801-301.494 242.837v82.881c0 17.617 14.414 32.031 32.031 32.031zM928.907 114.174h-832.813c-17.617 0-32.031 14.414-32.031 32.031v410.401c45.645-37.437 117.715-95.293 261.656-209.605 41.040-32.832 113.511-105.103 186.782-104.702 72.871-0.601 144.741 71.069 186.782 104.702 143.941 114.312 216.011 172.168 261.656 209.605v-410.401c0-17.617-14.414-32.031-32.031-32.031z" />
<glyph unicode="&#xf0f3;" glyph-name="bell" horiz-adv-x="897" d="M448.438-78.014c70.709 0 128.065 57.356 128.065 128.125h-256.13c0-70.769 57.356-128.125 128.065-128.125zM879.639 221.699c-38.678 41.561-111.048 104.082-111.048 308.882 0 155.552-109.067 280.074-256.13 310.623v41.721c0 35.375-28.668 64.063-64.023 64.063s-64.023-28.688-64.023-64.063v-41.721c-147.064-30.55-256.13-155.071-256.13-310.623 0-204.8-72.371-267.321-111.048-308.882-12.012-12.913-17.337-28.348-17.237-43.462 0.22-32.832 25.985-64.063 64.263-64.063h768.35c38.277 0 64.063 31.23 64.263 64.063 0.1 15.115-5.225 30.57-17.237 43.462z" />
<glyph unicode="&#xf100;" glyph-name="angle-double-left" horiz-adv-x="641" d="M306.499 451.503l235.83 232.227c9.409 9.409 24.624 9.409 34.033 0l14.214-14.214c9.409-9.409 9.409-24.624 0-34.033l-204.8-200.996 204.6-200.996c9.409-9.409 9.409-24.624 0-34.033l-14.214-14.214c-9.409-9.409-24.624-9.409-34.033 0l-235.83 232.227c-9.209 9.409-9.209 24.624 0.2 34.033zM50.249 417.47l235.83-232.227c9.409-9.409 24.624-9.409 34.033 0l14.214 14.214c9.409 9.409 9.409 24.624 0 34.033l-204.8 200.996 204.6 200.996c9.409 9.409 9.409 24.624 0 34.033l-14.214 14.214c-9.409 9.409-24.624 9.409-34.033 0l-235.83-232.227c-9.209-9.409-9.209-24.624 0.2-34.033z" />
<glyph unicode="&#xf101;" glyph-name="angle-double-right" horiz-adv-x="641" d="M334.126 417.47l-235.83-232.227c-9.409-9.409-24.624-9.409-34.033 0l-14.214 14.214c-9.409 9.409-9.409 24.624 0 34.033l204.8 200.996-204.6 200.996c-9.409 9.409-9.409 24.624 0 34.033l14.214 14.214c9.409 9.409 24.624 9.409 34.033 0l235.83-232.227c9.209-9.409 9.209-24.624-0.2-34.033zM590.377 451.503l-235.83 232.227c-9.409 9.409-24.624 9.409-34.033 0l-14.214-14.214c-9.409-9.409-9.409-24.624 0-34.033l204.8-200.996-204.6-200.996c-9.409-9.409-9.409-24.624 0-34.033l14.214-14.214c9.409-9.409 24.624-9.409 34.033 0l235.83 232.227c9.209 9.409 9.209 24.624-0.2 34.033z" />
<glyph unicode="&#xf102;" glyph-name="angle-double-up" horiz-adv-x="513" d="M273.267 448.3l232.227-235.83c9.409-9.409 9.409-24.624 0-34.033l-14.214-14.214c-9.409-9.409-24.624-9.409-34.033 0l-200.996 204.8-200.996-204.6c-9.409-9.409-24.624-9.409-34.033 0l-14.214 14.214c-9.409 9.409-9.409 24.624 0 34.033l232.227 235.83c9.409 9.209 24.624 9.209 34.033-0.2zM239.234 704.551l-232.227-235.83c-9.409-9.409-9.409-24.624 0-34.033l14.214-14.214c9.409-9.409 24.624-9.409 34.033 0l200.996 204.8 200.996-204.6c9.409-9.409 24.624-9.409 34.033 0l14.214 14.214c9.409 9.409 9.409 24.624 0 34.033l-232.227 235.83c-9.409 9.209-24.624 9.209-34.033-0.2z" />
<glyph unicode="&#xf103;" glyph-name="angle-double-down" horiz-adv-x="513" d="M239.234 420.673l-232.227 235.83c-9.409 9.409-9.409 24.624 0 34.033l14.214 14.214c9.409 9.409 24.624 9.409 34.033 0l200.996-204.8 200.996 204.6c9.409 9.409 24.624 9.409 34.033 0l14.214-14.214c9.409-9.409 9.409-24.624 0-34.033l-232.227-235.83c-9.409-9.209-24.624-9.209-34.033 0.2zM273.267 164.423l232.227 235.83c9.409 9.409 9.409 24.624 0 34.033l-14.214 14.214c-9.409 9.409-24.624 9.409-34.033 0l-200.996-204.8-200.996 204.6c-9.409 9.409-24.624 9.409-34.033 0l-14.214-14.214c-9.409-9.409-9.409-24.624 0-34.033l232.227-235.83c9.409-9.209 24.624-9.209 34.033 0.2z" />
<glyph unicode="&#xf104;" glyph-name="angle-left" horiz-adv-x="384" d="M50.249 451.503l235.83 232.227c9.409 9.409 24.624 9.409 34.033 0l14.214-14.214c9.409-9.409 9.409-24.624 0-34.033l-204.8-200.996 204.6-200.996c9.409-9.409 9.409-24.624 0-34.033l-14.214-14.214c-9.409-9.409-24.624-9.409-34.033 0l-235.83 232.227c-9.209 9.409-9.209 24.624 0.2 34.033z" />
<glyph unicode="&#xf105;" glyph-name="angle-right" horiz-adv-x="384" d="M334.126 417.47l-235.83-232.227c-9.409-9.409-24.624-9.409-34.033 0l-14.214 14.214c-9.409 9.409-9.409 24.624 0 34.033l204.8 200.996-204.6 200.996c-9.409 9.409-9.409 24.624 0 34.033l14.214 14.214c9.409 9.409 24.624 9.409 34.033 0l235.83-232.227c9.209-9.409 9.209-24.624-0.2-34.033z" />
<glyph unicode="&#xf106;" glyph-name="angle-up" horiz-adv-x="513" d="M273.267 576.425l232.227-235.83c9.409-9.409 9.409-24.624 0-34.033l-14.214-14.214c-9.409-9.409-24.624-9.409-34.033 0l-200.996 204.8-200.996-204.6c-9.409-9.409-24.624-9.409-34.033 0l-14.214 14.214c-9.409 9.409-9.409 24.624 0 34.033l232.227 235.83c9.409 9.209 24.624 9.209 34.033-0.2z" />
<glyph unicode="&#xf107;" glyph-name="angle-down" horiz-adv-x="513" d="M239.234 292.548l-232.227 235.83c-9.409 9.409-9.409 24.624 0 34.033l14.214 14.214c9.409 9.409 24.624 9.409 34.033 0l200.996-204.8 200.996 204.6c9.409 9.409 24.624 9.409 34.033 0l14.214-14.214c9.409-9.409 9.409-24.624 0-34.033l-232.227-235.83c-9.409-9.209-24.624-9.209-34.033 0.2z" />
<glyph unicode="&#xf111;" glyph-name="circle" d="M512 944c-274 0-496-222-496-496s222-496 496-496 496 222 496 496-222 496-496 496zM944 448c0-237.4-192.2-432-432-432-237.4 0-432 192.2-432 432 0 237.4 192.2 432 432 432 237.4 0 432-192.2 432-432z" />
<glyph unicode="&#xf123;" glyph-name="star-half" horiz-adv-x="1072" d="M1017.1 616.98l-292.74 42.62-130.82 264.78c-11.76 23.66-34.7 35.62-57.64 35.62-22.8 0-45.58-11.8-57.38-35.62l-130.86-264.76-292.76-42.58c-52.5-7.6-73.54-72.18-35.48-109.18l211.78-206-50.12-290.96c-7.12-41.56 26.060-74.9 63.22-74.9 9.86 0 20 2.34 29.74 7.5l261.9 137.36 261.88-137.4c9.72-5.1 19.84-7.42 29.66-7.42 37.2 0 70.44 33.22 63.32 74.8l-50.060 290.98 211.82 205.96c38.080 37 17.040 101.6-35.46 109.2zM773.62 370.58l-36.24-35.24 47.6-276.66-249.020 130.66 0.060 634.38 124.42-251.84 278.48-40.54-165.3-160.76z" />
<glyph unicode="&#xf138;" glyph-name="chevron-circle-right" d="M16 448c0-274 222-496 496-496s496 222 496 496-222 496-496 496-496-222-496-496zM512 880c237.4 0 432-192.2 432-432 0-237.4-192.2-432-432-432-237.4 0-432 192.2-432 432 0 237.4 192.2 432 432 432zM685.2 431l-230.2-230c-9.4-9.4-24.6-9.4-34 0l-14.2 14.2c-9.4 9.4-9.4 24.6 0 34l199.2 198.8-199 199c-9.4 9.4-9.4 24.6 0 34l14.2 14.2c9.4 9.4 24.6 9.4 34 0l230.2-230c9.2-9.6 9.2-24.8-0.2-34.2z" />
<glyph unicode="&#xf14a;" glyph-name="check-square" horiz-adv-x="896" d="M800 896h-704c-53.020 0-96-42.98-96-96v-704c0-53.020 42.98-96 96-96h704c53.020 0 96 42.98 96 96v704c0 53.020-42.98 96-96 96zM800 832c17.646 0 32-14.356 32-32v-704c0-17.644-14.354-32-32-32h-704c-17.644 0-32 14.356-32 32v704c0 17.644 14.356 32 32 32h704zM731.398 635.414l-16.902 17.040c-9.334 9.41-24.53 9.472-33.94 0.136l-326.882-324.26-137.952 139.066c-9.334 9.41-24.53 9.472-33.94 0.136l-17.040-16.902c-9.41-9.334-9.472-24.53-0.136-33.94l171.756-173.144c9.334-9.41 24.53-9.472 33.94-0.136l360.96 358.064c9.408 9.334 9.47 24.53 0.136 33.94z" />
<glyph unicode="&#xf167;" glyph-name="youtube" horiz-adv-x="1153" d="M1100.385 698.579c-12.574 47.346-49.622 84.635-96.662 97.289-85.263 22.994-427.159 22.994-427.159 22.994s-341.894 0-427.159-22.994c-47.040-12.656-84.088-49.943-96.662-97.289-22.846-85.818-22.846-264.869-22.846-264.869s0-179.051 22.846-264.869c12.574-47.346 49.622-83.081 96.662-95.735 85.265-22.994 427.159-22.994 427.159-22.994s341.894 0 427.159 22.994c47.040 12.654 84.088 48.389 96.662 95.735 22.846 85.818 22.846 264.869 22.846 264.869s0 179.051-22.846 264.869zM464.744 271.145v325.13l285.757-162.569-285.757-162.561z" />
<glyph unicode="&#xf1a0;" glyph-name="google" horiz-adv-x="976" d="M976 436.4c0-283-193.8-484.4-480-484.4-274.4 0-496 221.6-496 496s221.6 496 496 496c133.6 0 246-49 332.6-129.8l-135-129.8c-176.6 170.4-505 42.4-505-236.4 0-173 138.2-313.2 307.4-313.2 196.4 0 270 140.8 281.6 213.8h-281.6v170.6h472.2c4.6-25.4 7.8-49.8 7.8-82.8z" />
<glyph unicode="&#xf217;" glyph-name="cart-plus" horiz-adv-x="1152" d="M1103.982 832h-845.422l-16.658 88.846c-4.258 22.702-24.080 39.154-47.178 39.154h-170.724c-13.254 0-24-10.746-24-24v-16c0-13.254 10.746-24 24-24h157.44l139.854-745.892c-20.684-22.736-33.294-52.948-33.294-86.108 0-70.692 57.308-128 128-128s128 57.308 128 128c0 0.042 0 0.092 0 0.141 0 23.519-6.375 45.549-17.491 64.456l0.325-0.597h290.334c-10.791-18.31-17.166-40.34-17.166-63.859 0-0.050 0-0.099 0-0.149v0.008c0-70.692 57.308-128 128-128s128 57.308 128 128c0 35.986-14.87 68.48-38.776 91.736-5.182 20.482-23.706 36.264-46.57 36.264h-592.096l-24 128h662.762c22.736 0 42.354 15.952 46.992 38.21l86.662 416c6.208 29.808-16.546 57.79-46.994 57.79zM928 128c35.29 0 64-28.71 64-64s-28.71-64-64-64-64 28.71-64 64 28.71 64 64 64zM416 128c35.29 0 64-28.71 64-64s-28.71-64-64-64-64 28.71-64 64 28.71 64 64 64zM1004.312 384h-661.752l-72 384h813.752l-80-384zM544 568v16c0 13.254 10.746 24 24 24h72v72c0 13.254 10.746 24 24 24h16c13.254 0 24-10.746 24-24v-72h72c13.254 0 24-10.746 24-24v-16c0-13.254-10.746-24-24-24h-72v-72c0-13.254-10.746-24-24-24h-16c-13.254 0-24 10.746-24 24v72h-72c-13.254 0-24 10.746-24 24z" />
<glyph unicode="&#xf234;" glyph-name="user-plus" horiz-adv-x="1281" d="M1265.236 498.549h-176.172v176.172c0 8.809-7.207 16.016-16.016 16.016h-32.031c-8.809 0-16.016-7.207-16.016-16.016v-176.172h-176.172c-8.809 0-16.016-7.207-16.016-16.016v-32.031c0-8.809 7.207-16.016 16.016-16.016h176.172v-176.172c0-8.809 7.207-16.016 16.016-16.016h32.031c8.809 0 16.016 7.207 16.016 16.016v176.172h176.172c8.809 0 16.016 7.207 16.016 16.016v32.031c0 8.809-7.207 16.016-16.016 16.016zM627.813 370.424c-57.456 0-85.083-32.031-179.375-32.031s-121.719 32.031-179.375 32.031c-148.545 0-269.063-120.518-269.063-269.063v-83.281c0-53.052 43.042-96.094 96.094-96.094h704.688c53.052 0 96.094 43.042 96.094 96.094v83.281c0 148.545-120.518 269.063-269.063 269.063zM832.813 18.080c0-17.617-14.414-32.031-32.031-32.031h-704.688c-17.617 0-32.031 14.414-32.031 32.031v83.281c0 113.11 91.89 205 205 205 39.238 0 78.276-32.031 179.375-32.031 100.899 0 140.137 32.031 179.375 32.031 113.11 0 205-91.89 205-205v-83.281zM448.438 434.487c141.538 0 256.25 114.712 256.25 256.25s-114.712 256.25-256.25 256.25-256.25-114.712-256.25-256.25 114.712-256.25 256.25-256.25zM448.438 882.925c105.903 0 192.188-86.284 192.188-192.188s-86.284-192.188-192.188-192.188-192.188 86.284-192.188 192.188 86.284 192.188 192.188 192.188z" />
<glyph unicode="&#xf236;" glyph-name="bed" horiz-adv-x="1280" d="M288 320c88.22 0 160 71.78 160 160s-71.78 160-160 160-160-71.78-160-160 71.78-160 160-160zM288 576c52.94 0 96-43.060 96-96s-43.060-96-96-96-96 43.060-96 96 43.060 96 96 96zM1056 640h-512c-17.68 0-32-14.32-32-32v-352h-448v560c0 8.84-7.16 16-16 16h-32c-8.84 0-16-7.16-16-16v-736c0-8.84 7.16-16 16-16h32c8.84 0 16 7.16 16 16v112h1152v-112c0-8.84 7.16-16 16-16h32c8.84 0 16 7.16 16 16v336c0 123.72-100.28 224-224 224zM1216 256h-640v320h480c88.22 0 160-71.78 160-160v-160z" />
<glyph unicode="&#xf2bb;" glyph-name="address-card" horiz-adv-x="1153" d="M1025.001 882.925h-896.876c-70.669 0-128.125-57.456-128.125-128.125v-640.626c0-70.669 57.456-128.125 128.125-128.125h896.876c70.669 0 128.125 57.456 128.125 128.125v640.626c0 70.669-57.456 128.125-128.125 128.125zM1089.064 114.174c0-35.234-28.828-64.063-64.063-64.063h-896.876c-35.234 0-64.063 28.828-64.063 64.063v640.626c0 35.234 28.828 64.063 64.063 64.063h896.876c35.234 0 64.063-28.828 64.063-64.063v-640.626zM944.923 370.424h-224.219c-8.809 0-16.016-7.207-16.016-16.016v-32.031c0-8.809 7.207-16.016 16.016-16.016h224.219c8.809 0 16.016 7.207 16.016 16.016v32.031c0 8.809-7.207 16.016-16.016 16.016zM944.923 498.549h-224.219c-8.809 0-16.016-7.207-16.016-16.016v-32.031c0-8.809 7.207-16.016 16.016-16.016h224.219c8.809 0 16.016 7.207 16.016 16.016v32.031c0 8.809-7.207 16.016-16.016 16.016zM944.923 626.674h-224.219c-8.809 0-16.016-7.207-16.016-16.016v-32.031c0-8.809 7.207-16.016 16.016-16.016h224.219c8.809 0 16.016 7.207 16.016 16.016v32.031c0 8.809-7.207 16.016-16.016 16.016zM416.407 370.424c88.486 0 160.156 71.67 160.156 160.156s-71.67 160.156-160.156 160.156-160.156-71.67-160.156-160.156 71.67-160.156 160.156-160.156zM416.407 626.674c53.052 0 96.094-43.042 96.094-96.094s-43.042-96.094-96.094-96.094-96.094 43.042-96.094 96.094 43.042 96.094 96.094 96.094zM510.098 338.393c-39.038 0-48.848-14.014-93.691-14.014s-54.653 14.014-93.691 14.014c-42.441 0-83.682-18.818-107.705-54.854-14.414-21.421-22.822-47.246-22.822-75.073v-46.245c0-8.809 7.207-16.016 16.016-16.016h32.031c8.809 0 16.016 7.207 16.016 16.016v46.245c0 14.014 4.204 27.627 12.012 39.238 11.211 16.616 31.631 26.426 54.653 26.426 24.824 0 41.641-14.014 93.691-14.014 51.851 0 68.667 14.014 93.691 14.014 23.022 0 43.442-10.010 54.653-26.426 7.808-11.611 12.012-25.225 12.012-39.238v-46.245c0-8.809 7.207-16.016 16.016-16.016h32.031c8.809 0 16.016 7.207 16.016 16.016v46.245c0 27.827-8.408 53.652-22.822 75.073-24.624 36.035-65.864 54.854-108.106 54.854z" />
<glyph unicode="&#xf2bd;" glyph-name="user-circle" horiz-adv-x="993" d="M496.485 930.972c-274.268 0-496.485-222.217-496.485-496.485s222.217-496.485 496.485-496.485 496.485 222.217 496.485 496.485-222.217 496.485-496.485 496.485zM496.485 738.784c97.295 0 176.172-78.877 176.172-176.172s-78.877-176.172-176.172-176.172-176.172 78.877-176.172 176.172 78.877 176.172 176.172 176.172zM496.485 50.111c-117.515 0-222.818 53.252-293.286 136.533 37.637 70.869 111.309 119.717 197.193 119.717 4.805 0 9.609-0.801 14.214-2.202 26.025-8.408 53.252-13.813 81.88-13.813s56.055 5.405 81.88 13.813c4.604 1.401 9.409 2.202 14.214 2.202 85.884 0 159.556-48.848 197.193-119.717-70.469-83.281-175.772-136.533-293.286-136.533z" />
<glyph unicode="&#xf2cd;" glyph-name="bath" d="M1000 448h-872v304c0 44.112 35.888 80 80 80 33.638 0 62.474-20.88 74.28-50.35-36.482-47.704-34.882-115.368 4.84-161.29-7.588-7.588-7.588-19.892 0-27.48l17.76-17.76c7.588-7.588 19.892-7.588 27.48 0l180.52 180.52c7.588 7.588 7.588 19.892 0 27.48l-17.76 17.76c-7.588 7.588-19.892 7.588-27.48 0-37.636 32.554-89.884 39.52-133.774 20.89-24.596 44.224-71.772 74.23-125.866 74.23-79.402 0-144-64.598-144-144v-304h-40c-13.254 0-24-10.746-24-24v-16c0-13.254 10.746-24 24-24h40v-128c0-56.86 24.724-107.938 64-143.094v-88.906c0-13.254 10.746-24 24-24h16c13.254 0 24 10.746 24 24v50.94c19.008-6.932 40.951-10.94 63.831-10.94 0.060 0 0.119 0 0.179 0h511.991c0.050 0 0.11 0 0.169 0 22.88 0 44.823 4.009 65.166 11.362l-1.335-0.422v-50.94c0-13.254 10.746-24 24-24h16c13.254 0 24 10.746 24 24v88.906c39.276 35.156 64 86.234 64 143.094v128h40c13.254 0 24 10.746 24 24v16c0 13.254-10.746 24-24 24zM338.74 749.26c22.72 22.7 58.38 24.74 83.42 6.14l-89.56-89.56c-18.6 25.040-16.56 60.7 6.14 83.42zM896 256c0-70.58-57.42-128-128-128h-512c-70.58 0-128 57.42-128 128v128h768v-128z" />
<glyph unicode="&#xf2f5;" glyph-name="sign-out" d="M320 525.8c0 17.6 14.4 32 32 32h288v187.8c0 14.2 17.2 21.4 27.2 11.4l283.2-286.2c12.6-12.6 12.6-32.8 0-45.4l-283.2-286.2c-10-10-27.2-3-27.2 11.4v187.8h-288c-17.6 0-32 14.4-32 32v155.4zM256 525.8v-155.4c0-53 43-96 96-96h224v-123.8c0-71 86-107 136.4-56.6l283.4 286c37.6 37.6 37.6 98.4 0 136l-283.4 286.2c-50.2 50.2-136.4 14.6-136.4-56.6v-123.8h-224c-53 0-96-43.2-96-96zM0 736v-576c0-53 43-96 96-96h264c13.2 0 24 10.8 24 24v16c0 13.2-10.8 24-24 24h-264c-17.6 0-32 14.4-32 32v576c0 17.6 14.4 32 32 32h264c13.2 0 24 10.8 24 24v16c0 13.2-10.8 24-24 24h-264c-53 0-96-43-96-96z" />
<glyph unicode="&#xf2f6;" glyph-name="sign-in" d="M64 525.8c0 17.6 14.4 32 32 32h288v187.8c0 14.2 17.2 21.4 27.2 11.4l283.2-286.2c12.6-12.6 12.6-32.8 0-45.4l-283.2-286.2c-10-10-27.2-3-27.2 11.4v187.8h-288c-17.6 0-32 14.4-32 32v155.4zM0 525.8v-155.4c0-53 43-96 96-96h224v-123.8c0-71 86-107 136.4-56.6l283.4 286c37.6 37.6 37.6 98.4 0 136l-283.4 286.2c-50.2 50.2-136.4 14.6-136.4-56.6v-123.8h-224c-53 0-96-43.2-96-96zM1024 160v576c0 53-43 96-96 96h-264c-13.2 0-24-10.8-24-24v-16c0-13.2 10.8-24 24-24h264c17.6 0 32-14.4 32-32v-576c0-17.6-14.4-32-32-32h-264c-13.2 0-24-10.8-24-24v-16c0-13.2 10.8-24 24-24h264c53 0 96 43 96 96z" />
<glyph unicode="&#xf39e;" glyph-name="facebook-f" horiz-adv-x="529" d="M153.55-78.014v458.448h-153.55v182.178h153.55v143.54c0 155.952 95.293 240.835 234.429 240.835 66.665 0 123.921-5.005 140.537-7.207v-162.959h-96.494c-75.674 0-90.288-36.035-90.288-88.687v-125.523h170.767l-23.423-182.178h-147.344v-458.448z" />
<glyph unicode="&#xf3c5;" glyph-name="marker" horiz-adv-x="768" d="M384 960c-212.194 0-384-172.028-384-384 0-142.234 47.982-186.682 302.542-594.848 37.57-60.238 125.388-60.166 162.914 0 254.694 408.38 302.544 452.642 302.544 594.848 0 212.194-172.028 384-384 384zM384 32c-254.848 408.628-288 434.424-288 544 0 159.058 128.942 288 288 288s288-128.942 288-288c0-109.106-30.332-130.85-288-544zM224 576c0 88.366 71.634 160 160 160s160-71.634 160-160-71.634-160-160-160-160 71.634-160 160z" />
<glyph unicode="&#xf4ad;" glyph-name="comment" d="M256 528c-26.6 0-48-21.4-48-48s21.4-48 48-48 48 21.4 48 48-21.4 48-48 48zM512 528c-26.6 0-48-21.4-48-48s21.4-48 48-48 48 21.4 48 48-21.4 48-48 48zM768 528c-26.6 0-48-21.4-48-48s21.4-48 48-48 48 21.4 48 48-21.4 48-48 48zM512 896c-282.8 0-512-186.2-512-416 0-95.2 39.8-182.4 105.8-252.6-29.8-78.8-91.8-145.6-92.8-146.4-13.2-14-16.8-34.4-9.2-52s25-29 44.2-29c123 0 220 51.4 278.2 92.6 57.8-18.2 120.2-28.6 185.8-28.6 282.8 0 512 186.2 512 416s-229.2 416-512 416zM512 128c-56.6 0-112.6 8.6-166.4 25.6l-30.4 9.6-26-18.4c-46-32.6-117-70.6-205.2-79.2 24 30.2 59.6 80.8 81.6 139.2l14.2 37.4-27.4 29.2c-57.8 61.2-88.4 133.4-88.4 208.6 0 194 201 352 448 352s448-158 448-352-201-352-448-352z" />
<glyph unicode="&#xf4ff;" glyph-name="user-edit" horiz-adv-x="1281" d="M448.438 434.487c141.538 0 256.25 114.712 256.25 256.25s-114.712 256.25-256.25 256.25-256.25-114.712-256.25-256.25 114.712-256.25 256.25-256.25zM448.438 882.925c105.903 0 192.188-86.284 192.188-192.188s-86.284-192.188-192.188-192.188-192.188 86.284-192.188 192.188 86.284 192.188 192.188 192.188zM1262.433 474.326l-69.468 69.468c-12.612 12.612-29.028 18.818-45.645 18.818-16.416 0-33.032-6.206-45.645-18.818l-445.435-445.635-15.215-136.533c-2.402-21.421 14.414-39.639 35.435-39.639 1.401 0 2.603 0 4.004 0.2l136.533 15.215 445.435 445.435c25.024 25.425 25.024 66.265 0 91.489zM787.369-1.339l-78.877-9.009 8.809 79.077 314.107 314.107 70.068-70.068-314.107-314.107zM1146.72 358.012l-70.068 70.068 70.469 70.469h0.2l0.4-0.2 69.468-70.068-70.469-70.269zM269.063 306.362c39.238 0 78.276-32.031 179.375-32.031 100.899 0 140.137 32.031 179.375 32.031 41.44 0 79.878-12.612 112.109-33.833l45.645 45.645c-44.443 32.432-98.696 52.051-157.754 52.051-57.456 0-85.083-32.031-179.375-32.031s-121.719 32.031-179.375 32.031c-148.545 0.2-269.063-120.317-269.063-268.863v-83.281c0-53.052 43.042-96.094 96.094-96.094h487.476c-5.605 14.814-8.208 30.83-6.406 46.846l2.002 17.217h-483.072c-17.617 0-32.031 14.414-32.031 32.031v83.281c0 113.11 91.89 205 205 205z" />
<glyph unicode="&#xf502;" glyph-name="password" horiz-adv-x="1281" d="M1185.157 370.424h-32.031v96.094c0 88.286-71.87 160.156-160.156 160.156s-160.156-71.87-160.156-160.156v-96.094h-32.031c-53.052 0-96.094-43.042-96.094-96.094v-256.25c0-53.052 43.042-96.094 96.094-96.094h384.375c53.052 0 96.094 43.042 96.094 96.094v256.25c0 53.052-43.042 96.094-96.094 96.094zM896.876 466.518c0 53.052 43.042 96.094 96.094 96.094s96.094-43.042 96.094-96.094v-96.094h-192.188v96.094zM1217.189 18.080c0-17.617-14.414-32.031-32.031-32.031h-384.375c-17.617 0-32.031 14.414-32.031 32.031v256.25c0 17.617 14.414 32.031 32.031 32.031h384.375c17.617 0 32.031-14.414 32.031-32.031v-256.25zM448.438 434.487c141.538 0 256.25 114.712 256.25 256.25s-114.712 256.25-256.25 256.25-256.25-114.712-256.25-256.25 114.712-256.25 256.25-256.25zM448.438 882.925c105.903 0 192.188-86.284 192.188-192.188s-86.284-192.188-192.188-192.188-192.188 86.284-192.188 192.188 86.284 192.188 192.188 192.188zM96.094-13.951c-17.617 0-32.031 14.414-32.031 32.031v83.281c0 113.11 91.89 205 205 205 39.238 0 78.276-32.031 179.375-32.031 100.899 0 140.137 32.031 179.375 32.031 5.405 0 10.61-1.201 15.815-1.602 4.404 22.622 13.413 43.242 26.226 61.46-13.813 2.202-27.627 4.204-42.241 4.204-57.456 0-85.083-32.031-179.375-32.031s-121.719 32.031-179.375 32.031c-148.345 0-268.863-120.518-268.863-269.063v-83.281c0-53.052 43.042-96.094 96.094-96.094h577.364c-14.214 18.618-24.824 40.239-29.629 64.063h-547.735z" />
<glyph unicode="&#xf6a4;" glyph-name="user-avatar" horiz-adv-x="992" d="M496 944c-274 0-496-222-496-496s222-496 496-496 496 222 496 496-222 496-496 496zM752 100.8c-71.8-53-160.2-84.8-256-84.8s-184.2 31.8-256 84.8v27.2c0 70.6 57.4 128 128 128 22.2 0 55-22.8 128-22.8 73.2 0 105.6 22.8 128 22.8 70.6 0 128-57.4 128-128v-27.2zM813.2 155.8c-13.6 92.8-92.6 164.2-189.2 164.2-41 0-60.8-22.8-128-22.8s-86.8 22.8-128 22.8c-96.6 0-175.6-71.4-189.2-164.2-71 77-114.8 179.4-114.8 292.2 0 238.2 193.8 432 432 432s432-193.8 432-432c0-112.8-43.8-215.2-114.8-292.2zM496 720c-97.2 0-176-78.8-176-176s78.8-176 176-176 176 78.8 176 176-78.8 176-176 176zM496 432c-61.8 0-112 50.2-112 112s50.2 112 112 112 112-50.2 112-112-50.2-112-112-112z" />
<glyph unicode="&#xf752;" glyph-name="land" d="M407.35 586.697c-16.592 0-30.043-13.451-30.043-30.043v-450.647c0-16.592 13.451-30.043 30.043-30.043h450.647c16.592 0 30.043 13.451 30.043 30.043v450.647c0 16.592-13.451 30.043-30.043 30.043h-450.647zM197.047 586.697h30.043c16.592 0 30.043 13.451 30.043 30.043s-13.451 30.043-30.043 30.043h-120.172c-16.592 0-30.043-13.451-30.043-30.043s13.451-30.043 30.043-30.043h30.043v-510.733h-30.043c-16.592 0-30.043-13.451-30.043-30.043s13.451-30.043 30.043-30.043h120.172c16.592 0 30.043 13.451 30.043 30.043s-13.451 30.043-30.043 30.043h-30.043v510.733zM377.306 827.042v30.043c0 16.592-13.451 30.043-30.043 30.043s-30.043-13.451-30.043-30.043v-120.172c0-16.592 13.451-30.043 30.043-30.043s30.043 13.451 30.043 30.043v30.043h510.733v-30.043c0-16.592 13.451-30.043 30.043-30.043s30.043 13.451 30.043 30.043v120.172c0 16.592-13.451 30.043-30.043 30.043s-30.043-13.451-30.043-30.043v-30.043h-510.733zM407.35 646.784h450.647c49.777 0 90.129-40.352 90.129-90.129v-450.647c0-49.777-40.352-90.129-90.129-90.129h-450.647c-49.777 0-90.129 40.352-90.129 90.129v450.647c0 49.777 40.352 90.129 90.129 90.129z" />
<glyph unicode="&#xf753;" glyph-name="zalo-circle" d="M853.568 441.728c0-31.872-19.936-57.696-44.544-57.696s-44.544 25.824-44.544 57.696c0 31.872 19.936 57.696 44.544 57.696s44.544-25.824 44.544-57.696zM512 960c-282.784 0-512-229.248-512-512 0-138.176 54.752-263.616 143.744-355.712 20.896-105.344 4.768-141.088 4.768-141.088s84.8-15.168 162.624 25.792c83.072-29.248 129.568-40.928 200.832-40.928 282.752 0 512 229.216 512 511.968 0.032 282.72-229.216 511.968-511.968 511.968zM331.456 327.072c-14.976-0.768-168.16 0-168.16 0s-59.104 2.080-32.768 56.96c9.28 15.744 138.208 184.48 138.208 184.48l-106.080-0.672c0 0-32.128 2.048-32.128 34.88 0 27.040 32.768 25.664 32.768 25.664h151.040c0 0 60.544 1.376 34.912-50.624-14.272-20-136.768-185.92-136.768-185.92h121.792c0 0 26.4-10.016 27.104-32.8 0.672-22.656-14.976-25.6-29.92-31.968zM580.032 350.848c0-14.144-11.008-25.6-24.544-25.6h-12.928c-13.536 0-24.48 11.424-24.512 25.6v-5.248c-17.12-22.112-52-24.96-63.392-24.96-93.28 13.952-94.016 106.112-93.28 136.736 8.576 84.832 62.688 96.928 81.152 101.184 60.64 9.952 75.616-27.328 75.616-27.328v-0.16c0.768 13.376 11.424 23.936 24.416 23.936h12.928c13.536 0 24.544-11.488 24.544-25.632v-178.528zM674.752 366.048c0-21.792-12.416-39.264-27.616-39.264h-9.856c-15.296 0-27.744 17.472-27.744 39.264v244.992c0 21.76 12.48 39.392 27.744 39.392h9.856c15.232 0 27.616-17.632 27.616-39.392v-244.992zM810.944 325.248c-61.376 0-111.296 52.672-111.296 117.536s49.92 117.536 111.296 117.536c61.408 0 111.136-52.64 111.136-117.536-0.032-64.864-49.728-117.536-111.136-117.536zM470.336 497.248c-24.992 0-45.248-25.888-45.248-57.824 0-29.152 20.256-57.824 45.248-57.824s45.216 25.92 45.216 57.824c0 31.936-20.224 57.824-45.216 57.824z" />
</font>
</defs>
</svg>
