<svg version="1.1" xmlns="http://www.w3.org/2000/svg" xmlns:xlink="http://www.w3.org/1999/xlink"
>
<defs> </defs>
<symbol id="mi-en" viewBox="0 0 44 32">
  <title>en</title>
  <path fill="#012169" style="fill: var(--color4, #012169)" d="M-10.667 0h64v32h-64z"></path>
  <path fill="#fff" style="fill: var(--color5, #fff)" d="M-10.667 0v3.575l56.844 28.425h7.156v-3.575l-56.844-28.425h-7.156zM53.333 0v3.575l-56.844 28.425h-7.156v-3.575l56.844-28.425h7.156z"></path>
  <path fill="#fff" style="fill: var(--color5, #fff)" d="M16.002 0v32h10.663v-32h-10.663zM-10.667 10.669v10.662h64v-10.662h-64z"></path>
  <path fill="#c8102e" style="fill: var(--color6, #c8102e)" d="M-10.667 12.8v6.4h64v-6.4h-64zM18.133 0v32h6.4v-32h-6.4zM-10.667 32l21.331-10.669h4.775l-21.337 10.669h-4.769zM-10.667 0l21.331 10.669h-4.769l-16.563-8.281v-2.388zM27.233 10.669l21.331-10.669h4.769l-21.331 10.669h-4.769zM53.333 32l-21.331-10.669h4.769l16.563 8.281v2.387z"></path>
</symbol>
<symbol id="mi-vn" viewBox="0 0 44 32">
  <title>vn</title>
  <path fill="#ec0015" style="fill: var(--color7, #ec0015)" d="M-2.667 0h48v32h-48z"></path>
  <path fill="#ff0" style="fill: var(--color8, #ff0)" d="M27.183 23.813l-5.6-4.169-5.563 4.206 2.063-6.85-5.563-4.231 6.881-0.063 2.137-6.838 2.169 6.819 6.881 0.006-5.531 4.275 2.119 6.85z"></path>
</symbol>
<symbol id="mi-zalo" viewBox="0 0 34 32">
  <title>zalo</title>
  <path fill="#fdfefe" style="fill: var(--color1, #fdfefe)" d="M6.055 27.919c-0.132-0.059-0.227-0.125-0.073-0.257 0.095-0.073 0.198-0.139 0.301-0.205 0.96-0.623 1.862-1.305 2.456-2.309 0.498-0.836 0.418-1.327-0.205-1.943-3.475-3.475-4.999-7.631-4.237-12.542 0.433-2.771 1.701-5.168 3.548-7.25 1.114-1.261 2.441-2.28 3.892-3.13 0.088-0.051 0.213-0.066 0.227-0.198-0.029-0.073-0.081-0.051-0.125-0.051-2.47 0-4.941-0.051-7.404 0.015-2.36 0.073-4.398 1.899-4.391 4.515 0.015 7.646 0 15.291 0 22.944 0 2.375 1.811 4.362 4.178 4.45 2.001 0.081 4.002 0.015 6.011 0.007 0.147 0.007 0.293 0.015 0.44 0.015h10.585c2.639 0 5.278 0.015 7.917 0 2.448 0 4.435-1.979 4.435-4.42v-4.332c0-0.103 0.037-0.213-0.029-0.323-0.132 0.007-0.183 0.117-0.257 0.191-1.422 1.429-3.101 2.58-4.941 3.394-4.508 1.987-9.097 2.126-13.752 0.528-0.403-0.147-0.843-0.161-1.261-0.059-0.616 0.154-1.224 0.337-1.833 0.52-1.789 0.557-3.614 0.806-5.483 0.44zM11.369 15.568c0.125-0.161 0.191-0.257 0.264-0.352 0.96-1.217 1.921-2.434 2.881-3.658 0.279-0.352 0.557-0.711 0.733-1.136 0.205-0.484-0.015-0.938-0.513-1.114-0.22-0.066-0.454-0.095-0.689-0.081-1.305-0.007-2.617-0.007-3.922 0-0.183 0-0.367 0.022-0.542 0.066-0.411 0.103-0.66 0.52-0.557 0.938 0.073 0.279 0.293 0.498 0.572 0.564 0.176 0.044 0.359 0.066 0.542 0.059 0.792 0.007 1.591 0 2.382 0.007 0.088 0 0.198-0.059 0.264 0.073-0.066 0.088-0.132 0.176-0.198 0.257-1.136 1.437-2.265 2.881-3.401 4.318-0.279 0.359-0.425 0.755-0.22 1.195s0.623 0.52 1.048 0.55c0.337 0.022 0.682 0.007 1.026 0.007 1.188 0 2.368 0.007 3.555-0.007 0.63-0.007 0.968-0.389 0.902-0.975-0.051-0.462-0.367-0.704-0.953-0.711-1.034-0.007-2.067 0-3.174 0zM19.872 11.712c-0.916-0.799-1.928-0.85-2.917-0.264-1.202 0.704-1.642 1.855-1.495 3.189 0.139 1.246 0.682 2.265 1.987 2.683 0.814 0.264 1.569 0.169 2.236-0.374 0.176-0.139 0.227-0.11 0.352 0.044 0.242 0.308 0.66 0.425 1.026 0.286 0.367-0.11 0.608-0.447 0.608-0.828 0.007-1.466 0.015-2.932 0-4.398-0.007-0.586-0.557-0.96-1.129-0.843-0.315 0.066-0.491 0.279-0.667 0.506zM24.952 14.431c-0.029 1.833 1.488 3.218 3.394 3.027 1.752-0.176 2.888-1.488 2.829-3.343-0.059-1.833-1.422-3.086-3.291-3.027-1.752 0.051-2.991 1.459-2.932 3.343zM24.307 12.973c0-1.151 0.007-2.294 0-3.445 0-0.586-0.374-0.953-0.931-0.946-0.542 0.007-0.902 0.374-0.909 0.938-0.007 0.345 0 0.682 0 1.026v5.828c0 0.454 0.279 0.85 0.645 0.946 0.506 0.139 1.026-0.161 1.158-0.667 0.022-0.088 0.037-0.176 0.029-0.271 0.015-1.136 0.007-2.272 0.007-3.409z"></path>
  <path fill="#0180c7" style="fill: var(--color2, #0180c7)" d="M10.226 31.973c-2.001 0-4.010 0.066-6.011-0.007-2.368-0.095-4.178-2.082-4.178-4.45 0-7.646 0.015-15.291 0-22.944 0-2.617 2.045-4.442 4.398-4.508 2.463-0.066 4.933-0.015 7.404-0.015 0.044 0 0.103-0.022 0.125 0.051-0.015 0.132-0.147 0.147-0.227 0.198-1.451 0.85-2.778 1.869-3.892 3.13-1.84 2.082-3.115 4.471-3.548 7.25-0.762 4.904 0.77 9.068 4.237 12.542 0.616 0.623 0.696 1.107 0.205 1.943-0.594 1.004-1.495 1.686-2.456 2.309-0.103 0.059-0.205 0.132-0.308 0.198-0.154 0.132-0.059 0.198 0.073 0.257 0.029 0.066 0.066 0.125 0.11 0.183 0.843 0.748 1.642 1.547 2.47 2.309 0.389 0.359 0.777 0.733 1.151 1.107 0.154 0.139 0.411 0.183 0.447 0.447z"></path>
  <path fill="#0172b1" style="fill: var(--color3, #0172b1)" d="M10.226 31.973c-0.037-0.257-0.293-0.301-0.447-0.454-0.374-0.381-0.762-0.748-1.151-1.107-0.828-0.762-1.627-1.561-2.47-2.309-0.044-0.059-0.081-0.117-0.11-0.183 1.869 0.367 3.694 0.117 5.49-0.433 0.608-0.183 1.217-0.367 1.833-0.52 0.418-0.11 0.858-0.088 1.261 0.059 4.647 1.598 9.236 1.451 13.752-0.528 1.84-0.814 3.519-1.957 4.941-3.387 0.073-0.073 0.125-0.183 0.257-0.191 0.066 0.103 0.029 0.213 0.029 0.323v4.288c0.015 2.448-1.95 4.442-4.398 4.464h-0.037c-2.639 0.015-5.278 0-7.917 0h-10.592c-0.147-0.015-0.293-0.022-0.44-0.022z"></path>
  <path fill="#0180c7" style="fill: var(--color2, #0180c7)" d="M11.369 15.568c1.107 0 2.148-0.007 3.181 0 0.579 0.007 0.894 0.249 0.953 0.711 0.066 0.579-0.271 0.968-0.902 0.975-1.188 0.015-2.368 0.007-3.555 0.007-0.345 0-0.682 0.015-1.026-0.007-0.425-0.022-0.843-0.11-1.048-0.55s-0.059-0.836 0.22-1.195c1.129-1.437 2.265-2.881 3.401-4.318 0.066-0.088 0.132-0.176 0.198-0.257-0.073-0.125-0.176-0.066-0.264-0.073-0.792-0.007-1.591 0-2.382-0.007-0.183 0-0.367-0.022-0.542-0.059-0.418-0.095-0.674-0.513-0.579-0.924 0.066-0.279 0.286-0.506 0.564-0.572 0.176-0.044 0.359-0.066 0.542-0.066 1.305-0.007 2.617-0.007 3.922 0 0.235-0.007 0.462 0.022 0.689 0.081 0.498 0.169 0.711 0.63 0.513 1.114-0.176 0.418-0.454 0.777-0.733 1.136-0.96 1.224-1.921 2.441-2.881 3.65-0.081 0.095-0.154 0.191-0.271 0.352z"></path>
  <path fill="#0180c7" style="fill: var(--color2, #0180c7)" d="M19.872 11.712c0.176-0.227 0.359-0.44 0.66-0.498 0.579-0.117 1.122 0.257 1.129 0.843 0.022 1.466 0.015 2.932 0 4.398 0 0.381-0.249 0.718-0.608 0.828-0.367 0.139-0.784 0.029-1.026-0.286-0.125-0.154-0.176-0.183-0.352-0.044-0.667 0.542-1.422 0.638-2.236 0.374-1.305-0.425-1.84-1.444-1.987-2.683-0.154-1.341 0.293-2.485 1.495-3.189 0.997-0.594 2.009-0.542 2.925 0.257zM17.278 14.387c0.015 0.323 0.117 0.63 0.308 0.887 0.396 0.528 1.151 0.638 1.686 0.242 0.088-0.066 0.169-0.147 0.242-0.242 0.41-0.557 0.41-1.473 0-2.030-0.205-0.286-0.528-0.454-0.872-0.462-0.806-0.051-1.371 0.572-1.363 1.605zM24.952 14.431c-0.059-1.884 1.18-3.291 2.939-3.343 1.869-0.059 3.233 1.195 3.291 3.027 0.059 1.855-1.078 3.167-2.829 3.343-1.913 0.191-3.431-1.195-3.401-3.027zM26.792 14.255c-0.015 0.367 0.095 0.726 0.315 1.026 0.403 0.528 1.158 0.63 1.686 0.22 0.081-0.059 0.147-0.132 0.213-0.205 0.425-0.557 0.425-1.495 0.007-2.053-0.205-0.279-0.528-0.454-0.872-0.462-0.792-0.044-1.349 0.557-1.349 1.473zM24.307 12.973c0 1.136 0.007 2.272 0 3.409 0.007 0.52-0.403 0.953-0.924 0.968-0.088 0-0.183-0.007-0.271-0.029-0.367-0.095-0.645-0.484-0.645-0.946v-5.828c0-0.345-0.007-0.682 0-1.026 0.007-0.564 0.367-0.931 0.909-0.931 0.557-0.007 0.931 0.359 0.931 0.946 0.007 1.144 0 2.294 0 3.438z"></path>
  <path fill="#fdfefe" style="fill: var(--color1, #fdfefe)" d="M17.278 14.387c-0.007-1.034 0.557-1.657 1.356-1.613 0.345 0.015 0.667 0.183 0.872 0.469 0.41 0.55 0.41 1.473 0 2.030-0.396 0.528-1.151 0.638-1.686 0.242-0.088-0.066-0.169-0.147-0.242-0.242-0.183-0.257-0.286-0.564-0.301-0.887zM26.792 14.255c0-0.909 0.557-1.517 1.349-1.473 0.345 0.007 0.667 0.183 0.872 0.462 0.418 0.557 0.418 1.503-0.007 2.053-0.41 0.52-1.173 0.608-1.693 0.198-0.081-0.059-0.147-0.132-0.205-0.213-0.22-0.301-0.323-0.66-0.315-1.026z"></path>
</symbol>
<symbol id="mi-eye" viewBox="0 0 36 32">
  <title>eye</title>
  <path d="M18 18c2.209 0 4-1.791 4-4s-1.791-4-4-4v0c-0.063 0-0.117 0.015-0.178 0.018 0.113 0.301 0.178 0.65 0.178 1.013 0 1.64-1.329 2.969-2.969 2.969-0.364 0-0.712-0.065-1.034-0.185l0.021 0.007c0 0.063-0.018 0.117-0.018 0.178 0 2.209 1.791 4 4 4v0zM35.782 15.088c-3.389-6.613-10.099-11.088-17.782-11.088s-14.395 4.477-17.782 11.088c-0.137 0.265-0.217 0.579-0.217 0.912s0.080 0.647 0.223 0.924l-0.005-0.011c3.389 6.613 10.099 11.088 17.782 11.088s14.395-4.477 17.782-11.088c0.137-0.265 0.217-0.579 0.217-0.912s-0.080-0.647-0.223-0.924l0.005 0.011zM18 6c4.418 0 8 3.582 8 8s-3.582 8-8 8c-4.418 0-8-3.582-8-8v0c0.005-4.416 3.584-7.995 8-8h0zM18 26c-6.71 0-12.841-3.832-16-10 1.81-3.503 4.601-6.284 8.008-8.035l0.104-0.048c-1.304 1.689-2.111 3.781-2.111 6.083 0 5.523 4.477 10 10 10s10-4.477 10-10v0c0-2.302-0.807-4.394-2.111-6.083 3.511 1.799 6.301 4.58 8.063 7.981l0.048 0.103c-3.158 6.168-9.29 10-16 10z"></path>
</symbol>
<symbol id="mi-eye-slash" viewBox="0 0 40 32">
  <title>eye-slash</title>
  <path d="M39.813 30.328l-38.375-30.219c-0.085-0.068-0.194-0.109-0.312-0.109-0.157 0-0.298 0.073-0.39 0.187l-0.001 0.001-0.625 0.782c-0.068 0.085-0.11 0.194-0.11 0.312 0 0.157 0.073 0.298 0.186 0.389l0.001 0.001 38.375 30.219c0.085 0.068 0.194 0.11 0.313 0.11 0.158 0 0.298-0.073 0.39-0.187l0.001-0.001 0.625-0.782c0.068-0.085 0.109-0.194 0.109-0.312 0-0.157-0.073-0.298-0.187-0.39l-0.001-0.001zM20 6c4.416 0.005 7.995 3.584 8 8v0c0 1.351-0.369 2.606-0.962 3.723l1.591 1.25c0.85-1.468 1.372-3.152 1.372-4.973 0-2.302-0.807-4.394-2.111-6.083 3.511 1.799 6.303 4.58 8.066 7.981l0.048 0.103c-1.108 2.124-2.525 3.928-4.216 5.431l-0.019 0.017 1.582 1.246c1.779-1.643 3.304-3.579 4.433-5.782 0.137-0.265 0.217-0.579 0.217-0.912s-0.080-0.647-0.223-0.924l0.005 0.011c-3.389-6.613-10.099-11.088-17.783-11.088-0.003 0-0.007 0-0.010 0-2.946 0-5.739 0.655-8.241 1.827l0.119-0.050 2.861 2.25c1.412-1.244 3.244-2.027 5.272-2.027zM23.804 15.177c0.125-0.367 0.197-0.79 0.197-1.23 0-2.18-1.767-3.947-3.947-3.947-0.019 0-0.038 0-0.056 0l0.003-0c-0.063 0-0.118 0.015-0.178 0.018 0.113 0.293 0.178 0.632 0.178 0.986 0 0.369-0.071 0.722-0.2 1.045l0.007-0.019zM10.203 12.104c-0.124 0.568-0.197 1.222-0.202 1.892l-0 0.004c-0 0.011-0 0.025-0 0.038 0 5.502 4.46 9.962 9.962 9.962 1.517 0 2.954-0.339 4.241-0.945l-0.061 0.026-1.849-1.456c-0.731 0.221-1.491 0.375-2.293 0.375-4.416-0.005-7.995-3.584-8.001-8v-0.001c0-0.152 0.037-0.295 0.045-0.445zM20 26c-6.71 0-12.842-3.832-16-10 1.089-2.125 2.568-3.92 4.269-5.42l-1.616-1.273c-1.78 1.643-3.304 3.578-4.433 5.781-0.137 0.265-0.217 0.579-0.217 0.912s0.080 0.647 0.223 0.924l-0.005-0.011c3.387 6.613 10.097 11.088 17.78 11.088 0.003 0 0.006 0 0.010 0 2.946 0 5.739-0.655 8.242-1.827l-0.119 0.050-1.828-1.438c-1.988 0.767-4.108 1.214-6.304 1.214z"></path>
</symbol>
  <symbol id="mi-facebook" viewBox="0 0 32 32">
    <title>facebook</title>
    <path fill="#3b5998" style="fill: var(--color1, #3b5998)" d="M32 16c0 8.837-7.163 16-16 16s-16-7.163-16-16c0-8.837 7.163-16 16-16s16 7.163 16 16z"></path>
    <path fill="#fff" style="fill: var(--color2, #fff)" d="M18.016 10.848h2.144v-3.168h-2.528c-3.040 0.096-3.68 1.824-3.712 3.616v0 1.568h-2.080v3.136h2.080v8.32h3.136v-8.32h2.56l0.48-3.104h-3.040v-0.96c0-0.608 0.384-1.088 0.96-1.088z"></path>
  </symbol>
  <symbol id="mi-messenger" viewBox="0 0 32 32">
    <title>messenger</title>
    <path fill="#1c8dfb" style="fill: var(--color3, #1c8dfb)" d="M32 16c0 8.837-7.163 16-16 16s-16-7.163-16-16c0-8.837 7.163-16 16-16s16 7.163 16 16z"></path>
    <path fill="#fff" style="fill: var(--color2, #fff)" d="M17.504 20.416l-3.744-4-7.36 4 8.096-8.576 3.84 4.032 7.264-4.032z"></path>
  </symbol>
  
  <svg><use x="0" y="0" width="16" height="14" xlink:href="#mi-en" /></svg>
  <svg><use x="0" y="20" width="16" height="14" xlink:href="#mi-vn" /></svg>
</svg>
